<svg width="1807pt" height="1336" viewBox="0 0 1807.19 1002.16" xmlns="http://www.w3.org/2000/svg"><g class="graph"><path fill="#fff" stroke="transparent" d="M0 1002.16V0h1807.19v1002.16H0z"/><g class="node" transform="translate(4 998.16)"><path fill="#ffe6cc" stroke="#000" d="M798.4-118h-65v36h65v-36z"/><text text-anchor="middle" x="765.9" y="-96.3" font-family="Times,serif" font-size="14">L0_out</text></g><g class="node" transform="translate(4 998.16)"><circle fill="none" stroke="#000" cx="879.9" cy="-258.24" r="23"/><text text-anchor="middle" x="879.9" y="-254.54" font-family="Times,serif" font-size="14">16</text></g><g class="edge" transform="translate(4 998.16)"><path fill="none" stroke="#000" d="M798.64-100.4c40.28-1.25 107.24-10.24 139.26-53.6 12-16.27 7.75-26.82 0-45.5-6.74-16.2-20.47-30.21-32.88-40.37"/><circle stroke="#000" cx="901.84" cy="-242.35" r="4"/></g><g class="node" transform="translate(4 998.16)"><circle fill="none" stroke="#000" cx="905.9" cy="-176.75" r="23"/><text text-anchor="middle" x="905.9" y="-173.05" font-family="Times,serif" font-size="14">18</text></g><g class="edge" transform="translate(4 998.16)"><path fill="none" stroke="#000" d="M798.61-117.25c20.37-10.26 47.03-23.95 70.29-36.75 3.57-1.97 7.32-4.1 10.99-6.22"/><circle stroke="#000" cx="883.35" cy="-162.24" r="4"/></g><g class="node" transform="translate(4 998.16)"><circle fill="none" stroke="#000" cx="777.9" cy="-258.24" r="23"/><text text-anchor="middle" x="777.9" y="-254.54" font-family="Times,serif" font-size="14">26</text></g><g class="edge" transform="translate(4 998.16)"><path fill="none" stroke="#000" d="M797.47-118.22c12.87-8.85 26.37-20.92 33.43-35.78 8.67-18.27 7.33-26.65 0-45.5-5.65-14.49-16.81-27.55-27.44-37.57"/><path stroke="#000" d="M801.03-234.54l-5.14-9.26 9.8 4.04-4.66 5.22z"/></g><g class="node" transform="translate(4 998.16)"><circle fill="none" stroke="#000" cx="765.9" cy="-176.75" r="23"/><text text-anchor="middle" x="765.9" y="-173.05" font-family="Times,serif" font-size="14">48</text></g><g class="edge" transform="translate(4 998.16)"><path fill="none" stroke="#000" d="M765.9-118.34v-25.33"/><path stroke="#000" d="M762.4-143.95l3.5-10 3.5 10h-7z"/></g><g class="node" transform="translate(4 998.16)"><circle fill="none" stroke="#000" cx="444.9" cy="-258.24" r="23"/><text text-anchor="middle" x="444.9" y="-254.54" font-family="Times,serif" font-size="14">50</text></g><g class="edge" transform="translate(4 998.16)"><path fill="none" stroke="#000" d="M737.14-118.13c-14.72-9.52-32.41-22.2-46.24-35.87-17.78-17.55-11.99-32-33-45.5-68.29-43.85-103.76-5.61-179-36-2.99-1.2-6-2.67-8.93-4.28"/><circle stroke="#000" cx="466.36" cy="-241.93" r="4"/></g><g class="node" transform="translate(4 998.16)"><circle fill="none" stroke="#000" cx="510.9" cy="-258.24" r="23"/><text text-anchor="middle" x="510.9" y="-254.54" font-family="Times,serif" font-size="14">56</text></g><g class="edge" transform="translate(4 998.16)"><path fill="none" stroke="#000" d="M754.8-118.21c-16.59-25.23-47.63-70.44-63.9-81.29-52.76-35.13-78.83-13.28-138-36-4.35-1.66-8.83-3.66-13.17-5.75"/><path stroke="#000" d="M537.89-238.26l-7.33-7.65 10.5 1.4-3.17 6.25z"/></g><g class="node" transform="translate(4 998.16)"><circle fill="none" stroke="#000" cx="625.9" cy="-176.75" r="23"/><text text-anchor="middle" x="625.9" y="-173.05" font-family="Times,serif" font-size="14">58</text></g><g class="edge" transform="translate(4 998.16)"><path fill="none" stroke="#000" d="M733.18-117.25c-20.37-10.26-47.03-23.95-70.28-36.75-3.58-1.97-7.33-4.1-11-6.22"/><circle stroke="#000" cx="648.44" cy="-162.24" r="4"/></g><g class="node" transform="translate(4 998.16)"><circle fill="none" stroke="#000" cx="372.9" cy="-258.24" r="23"/><text text-anchor="middle" x="372.9" y="-254.54" font-family="Times,serif" font-size="14">70</text></g><g class="edge" transform="translate(4 998.16)"><path fill="none" stroke="#000" d="M733.08-105.39c-36.5-6.13-96-19.88-139.18-48.61-21.94-14.59-15.69-31.48-38-45.5-55.51-34.85-81.96-12.16-143-36-4.53-1.76-9.19-3.94-13.66-6.22"/><circle stroke="#000" cx="395.48" cy="-243.73" r="4"/></g><g class="node" transform="translate(4 998.16)"><circle fill="none" stroke="#000" cx="714.9" cy="-258.24" r="23"/><text text-anchor="middle" x="714.9" y="-254.54" font-family="Times,serif" font-size="14">86</text></g><g class="edge" transform="translate(4 998.16)"><path fill="none" stroke="#000" d="M779.36-118.07c14.17-20.21 32.64-54.51 18.54-81.43-13.05-24.89-28.94-19.92-52-36-1.93-1.34-3.91-2.72-5.91-4.12"/><circle stroke="#000" cx="736.52" cy="-242.05" r="4"/></g><g class="node" transform="translate(4 998.16)"><path fill="#ffe6cc" stroke="#000" d="M473.4-118h-65v36h65v-36z"/><text text-anchor="middle" x="440.9" y="-96.3" font-family="Times,serif" font-size="14">L1_out</text></g><g class="node" transform="translate(4 998.16)"><circle fill="none" stroke="#000" cx="523.9" cy="-176.75" r="23"/><text text-anchor="middle" x="523.9" y="-173.05" font-family="Times,serif" font-size="14">14</text></g><g class="edge" transform="translate(4 998.16)"><path fill="none" stroke="#000" d="M460.15-118.34c11.81-10.64 27.05-24.36 39.66-35.72"/><path stroke="#000" d="M497.5-156.69l9.77-4.09-5.09 9.29-4.68-5.2z"/></g><g class="node" transform="translate(4 998.16)"><circle fill="none" stroke="#000" cx="397.9" cy="-176.75" r="23"/><text text-anchor="middle" x="397.9" y="-173.05" font-family="Times,serif" font-size="14">46</text></g><g class="edge" transform="translate(4 998.16)"><path fill="none" stroke="#000" d="M430.92-118.34c-5.05-8.78-11.31-19.66-17.02-29.58"/><path stroke="#000" d="M410.82-146.25l-1.95-10.42 8.02 6.92-6.07 3.5z"/></g><g class="node" transform="translate(4 998.16)"><circle fill="none" stroke="#000" cx="460.9" cy="-176.75" r="23"/><text text-anchor="middle" x="460.9" y="-173.05" font-family="Times,serif" font-size="14">54</text></g><g class="edge" transform="translate(4 998.16)"><path fill="none" stroke="#000" d="M445.53-118.34c2.26-8.42 5.03-18.77 7.59-28.35"/><circle stroke="#000" cx="454.18" cy="-150.64" r="4"/></g><g class="edge" transform="translate(4 998.16)"><path fill="none" stroke="#000" d="M473.55-114.58c2.82-1.16 5.63-2.31 8.35-3.42 39.89-16.27 86.15-34.75 115.25-46.33"/><circle stroke="#000" cx="601.16" cy="-165.93" r="4"/></g><g class="node" transform="translate(4 998.16)"><circle fill="none" stroke="#000" cx="334.9" cy="-176.75" r="23"/><text text-anchor="middle" x="334.9" y="-173.05" font-family="Times,serif" font-size="14">68</text></g><g class="edge" transform="translate(4 998.16)"><path fill="none" stroke="#000" d="M416.58-118.15c-16.9-11.92-39.37-27.76-56.47-39.81"/><circle stroke="#000" cx="356.42" cy="-160.57" r="4"/></g><g class="node" transform="translate(4 998.16)"><path fill="#ffe6cc" stroke="#000" d="M556.4-118h-65v36h65v-36z"/><text text-anchor="middle" x="523.9" y="-96.3" font-family="Times,serif" font-size="14">L2_out</text></g><g class="edge" transform="translate(4 998.16)"><path fill="none" stroke="#000" d="M523.9-118.34v-27.61"/><circle stroke="#000" cx="523.9" cy="-149.95" r="4"/></g><g class="edge" transform="translate(4 998.16)"><path fill="none" stroke="#000" d="M556.81-107.28c51.46-9.84 154.1-29.55 241.09-46.72 26.28-5.19 56.15-11.21 77.8-15.6"/><circle stroke="#000" cx="879.65" cy="-170.4" r="4"/></g><g class="edge" transform="translate(4 998.16)"><path fill="none" stroke="#000" d="M491.32-118.1c-18.57-10.01-42.11-23.15-62.42-35.9-1.46-.91-2.94-1.87-4.43-2.84"/><path stroke="#000" d="M422.36-154.04l-6.32-8.51 10.25 2.71-3.93 5.8z"/></g><g class="edge" transform="translate(4 998.16)"><path fill="none" stroke="#000" d="M556.53-111.08c47.35-14.62 134.38-41.51 179.88-55.56"/><circle stroke="#000" cx="740.32" cy="-167.85" r="4"/></g><g class="edge" transform="translate(4 998.16)"><path fill="none" stroke="#000" d="M509.28-118.34c-8.57-10.16-19.5-23.14-28.81-34.18"/><circle stroke="#000" cx="477.79" cy="-155.7" r="4"/></g><g class="edge" transform="translate(4 998.16)"><path fill="none" stroke="#000" d="M490.98-114.63c-3.06-1.17-6.12-2.31-9.08-3.37-50.85-18.14-67.55-12.21-116-36-1.59-.78-3.18-1.63-4.76-2.53"/><path stroke="#000" d="M358.92-153.8l-6.58-8.3 10.32 2.39-3.74 5.91z"/></g><g class="edge" transform="translate(4 998.16)"><path fill="none" stroke="#000" d="M545.13-185.17c13.77-4.61 32.17-10.39 48.77-14.33 94.69-22.49 121.3-13.51 216-36 12.96-3.07 27.02-7.27 39.12-11.16"/><path stroke="#000" d="M848.07-250.03l10.59.21-8.41 6.44-2.18-6.65z"/></g><g class="edge" transform="translate(4 998.16)"><path fill="none" stroke="#000" d="M545.23-184.8c13.81-4.46 32.21-10.21 48.67-14.7 67.39-18.37 89.25-7.42 153-36 1.6-.72 3.22-1.53 4.81-2.4"/><path stroke="#000" d="M750.22-241.09l10.34-2.27-6.66 8.23-3.68-5.96z"/></g><g class="node" transform="translate(4 998.16)"><circle fill="none" stroke="#000" cx="118.9" cy="-258.24" r="23"/><text text-anchor="middle" x="118.9" y="-254.54" font-family="Times,serif" font-size="14">32</text></g><g class="edge" transform="translate(4 998.16)"><path fill="none" stroke="#000" d="M506.67-191.89c-4.28-2.93-9.02-5.69-13.77-7.61-62-24.94-261.64-46.71-341.01-54.59"/><path stroke="#000" d="M151.12-250.65l-9.61-4.46 10.3-2.51-.69 6.97z"/></g><g class="node" transform="translate(4 998.16)"><circle fill="none" stroke="#000" cx="943.9" cy="-345.59" r="23"/><text text-anchor="middle" x="943.9" y="-341.89" font-family="Times,serif" font-size="14">22</text></g><g class="edge" transform="translate(4 998.16)"><path fill="none" stroke="#000" d="M893.16-276.93c9.09-12.13 21.31-28.42 31.47-41.97"/><path stroke="#000" d="M921.85-321.03l8.8-5.9-3.2 10.1-5.6-4.2z"/></g><g class="node" transform="translate(4 998.16)"><circle fill="none" stroke="#000" cx="1388.9" cy="-345.59" r="23"/><text text-anchor="middle" x="1388.9" y="-341.89" font-family="Times,serif" font-size="14">36</text></g><g class="edge" transform="translate(4 998.16)"><path fill="none" stroke="#000" d="M901.1-266.79c13.76-4.66 32.16-10.44 48.8-14.2 78.04-17.66 318.64-48.56 406.47-59.56"/><path stroke="#000" d="M1355.95-344.03l10.35 2.24-9.49 4.71-.86-6.95z"/></g><g class="node" transform="translate(4 998.16)"><circle fill="none" stroke="#000" cx="981.9" cy="-258.24" r="23"/><text text-anchor="middle" x="981.9" y="-254.54" font-family="Times,serif" font-size="14">20</text></g><g class="edge" transform="translate(4 998.16)"><path fill="none" stroke="#000" d="M921.27-193.84l38.02-39.76"/><path stroke="#000" d="M957.1-236.37l9.44-4.81-4.38 9.65-5.06-4.84z"/></g><g class="node" transform="translate(4 998.16)"><circle fill="none" stroke="#000" cx="802.9" cy="-345.59" r="23"/><text text-anchor="middle" x="802.9" y="-341.89" font-family="Times,serif" font-size="14">28</text></g><g class="edge" transform="translate(4 998.16)"><path fill="none" stroke="#000" d="M888.57-191.7c-12.61-10.87-29.38-26.9-40.67-43.8-16.71-24.98-29.05-57.16-36.54-80.08"/><circle stroke="#000" cx="810.13" cy="-319.46" r="4"/></g><g class="node" transform="translate(4 998.16)"><circle fill="none" stroke="#000" cx="1463.9" cy="-258.24" r="23"/><text text-anchor="middle" x="1463.9" y="-254.54" font-family="Times,serif" font-size="14">38</text></g><g class="edge" transform="translate(4 998.16)"><path fill="none" stroke="#000" d="M928.46-180.96c86.94-12.39 400.45-57.05 502.84-71.64"/><path stroke="#000" d="M1430.96-256.09l10.4 2.06-9.41 4.87-.99-6.93z"/></g><g class="node" transform="translate(4 998.16)"><circle fill="none" stroke="#000" cx="949.9" cy="-438.78" r="23"/><text text-anchor="middle" x="949.9" y="-435.08" font-family="Times,serif" font-size="14">24</text></g><g class="edge" transform="translate(4 998.16)"><path fill="none" stroke="#000" d="M982.91-281.15c.58-23.34.1-61.25-7.01-93.04-2.8-12.48-7.81-25.67-12.7-36.78"/><circle stroke="#000" cx="961.52" cy="-414.65" r="4"/></g><g class="edge" transform="translate(4 998.16)"><path fill="none" stroke="#000" d="M945.35-368.67c.77-11.76 1.73-26.39 2.57-39.17"/><circle stroke="#000" cx="948.19" cy="-411.92" r="4"/></g><g class="node" transform="translate(4 998.16)"><path fill="#ffe5f1" stroke="#000" d="M949.9-948.16l55.79-34.5H894.1l55.8 34.5z"/><text text-anchor="middle" x="949.9" y="-967.46" font-family="Times,serif" font-size="14">ob0</text></g><g class="edge" transform="translate(4 998.16)"><path fill="none" stroke="#000" d="M949.9-461.64v-162.53-188.39-127.42"/><circle stroke="#000" cx="949.9" cy="-944.16" r="4"/></g><g class="edge" transform="translate(4 998.16)"><path fill="none" stroke="#000" d="M784.07-280.34c3.13-10.67 6.97-23.78 10.36-35.37"/><circle stroke="#000" cx="795.58" cy="-319.6" r="4"/></g><g class="node" transform="translate(4 998.16)"><circle fill="none" stroke="#000" cx="1121.9" cy="-345.59" r="23"/><text text-anchor="middle" x="1121.9" y="-341.89" font-family="Times,serif" font-size="14">84</text></g><g class="edge" transform="translate(4 998.16)"><path fill="none" stroke="#000" d="M799.22-266.31c13.81-4.47 32.22-10.22 48.68-14.68 86.86-23.54 190.67-46.15 242-56.97"/><path stroke="#000" d="M1089.23-341.39l10.51 1.37-9.07 5.48-1.44-6.85z"/></g><g class="node" transform="translate(4 998.16)"><circle fill="none" stroke="#000" cx="739.9" cy="-345.59" r="23"/><text text-anchor="middle" x="739.9" y="-341.89" font-family="Times,serif" font-size="14">88</text></g><g class="edge" transform="translate(4 998.16)"><path fill="none" stroke="#000" d="M768.89-279.47c-5.02-11.27-11.33-25.45-16.79-37.7"/><circle stroke="#000" cx="750.46" cy="-320.85" r="4"/></g><g class="node" transform="translate(4 998.16)"><circle fill="none" stroke="#000" cx="80.9" cy="-438.78" r="23"/><text text-anchor="middle" x="80.9" y="-435.08" font-family="Times,serif" font-size="14">30</text></g><g class="edge" transform="translate(4 998.16)"><path fill="none" stroke="#000" d="M788.24-363.19c-4.76-4.34-10.36-8.49-16.34-11-111.96-46.89-424.6-20.7-545-36-40.47-5.14-86.65-14.46-116.05-20.83"/><circle stroke="#000" cx="106.93" cy="-431.88" r="4"/></g><g class="node" transform="translate(4 998.16)"><circle fill="none" stroke="#000" cx="55.9" cy="-531.98" r="23"/><text text-anchor="middle" x="55.9" y="-528.28" font-family="Times,serif" font-size="14">34</text></g><g class="edge" transform="translate(4 998.16)"><path fill="none" stroke="#000" d="M75.1-460.94c-3.35-12.2-7.6-27.71-11.25-41.04"/><circle stroke="#000" cx="62.72" cy="-506.09" r="4"/></g><g class="edge" transform="translate(4 998.16)"><path fill="none" stroke="#000" d="M107.01-277.83C90.15-305.42 60.1-359.41 48.9-410.19c-6.75-30.59-3.26-66.53.83-91.21"/><circle stroke="#000" cx="50.43" cy="-505.37" r="4"/></g><g class="node" transform="translate(4 998.16)"><path fill="#ffe5f1" stroke="#000" d="M55.9-948.16l55.79-34.5H.1l55.8 34.5z"/><text text-anchor="middle" x="55.9" y="-967.46" font-family="Times,serif" font-size="14">ob1</text></g><g class="edge" transform="translate(4 998.16)"><path fill="none" stroke="#000" d="M55.9-554.84v-162.53-95.19-127.42"/><circle stroke="#000" cx="55.9" cy="-944.16" r="4"/></g><g class="node" transform="translate(4 998.16)"><circle fill="none" stroke="#000" cx="1650.9" cy="-438.78" r="23"/><text text-anchor="middle" x="1650.9" y="-435.08" font-family="Times,serif" font-size="14">42</text></g><g class="edge" transform="translate(4 998.16)"><path fill="none" stroke="#000" d="M1404.23-362.73c4.69-4.22 10.09-8.43 15.67-11.46 65.26-35.48 151.88-52.41 198.31-59.4"/><path stroke="#000" d="M1617.89-437.08l10.4 2.03-9.39 4.9-1.01-6.93z"/></g><g class="node" transform="translate(4 998.16)"><circle fill="none" stroke="#000" cx="1388.9" cy="-438.78" r="28.7"/><text text-anchor="middle" x="1388.9" y="-435.08" font-family="Times,serif" font-size="14">112</text></g><g class="edge" transform="translate(4 998.16)"><path fill="none" stroke="#000" d="M1388.9-368.67v-31.05"/><path stroke="#000" d="M1385.4-400.03l3.5-10 3.5 10h-7z"/></g><g class="node" transform="translate(4 998.16)"><circle fill="none" stroke="#000" cx="1606.9" cy="-345.59" r="23"/><text text-anchor="middle" x="1606.9" y="-341.89" font-family="Times,serif" font-size="14">40</text></g><g class="edge" transform="translate(4 998.16)"><path fill="none" stroke="#000" d="M1483.18-270.75c24.63-14.7 67.43-40.25 95.66-57.1"/><path stroke="#000" d="M1577.08-330.87l10.38-2.12-6.79 8.13-3.59-6.01z"/></g><g class="node" transform="translate(4 998.16)"><circle fill="none" stroke="#000" cx="1457.9" cy="-345.59" r="28.7"/><text text-anchor="middle" x="1457.9" y="-341.89" font-family="Times,serif" font-size="14">110</text></g><g class="edge" transform="translate(4 998.16)"><path fill="none" stroke="#000" d="M1462.35-281.22c-.55-7.81-1.18-16.84-1.8-25.59"/><path stroke="#000" d="M1457.05-306.65l2.79-10.22 4.2 9.73-6.99.49z"/></g><g class="node" transform="translate(4 998.16)"><circle fill="none" stroke="#000" cx="1606.9" cy="-531.98" r="23"/><text text-anchor="middle" x="1606.9" y="-528.28" font-family="Times,serif" font-size="14">44</text></g><g class="edge" transform="translate(4 998.16)"><path fill="none" stroke="#000" d="M1606.9-368.47V-500.7"/><circle stroke="#000" cx="1606.9" cy="-505.13" r="4"/></g><g class="edge" transform="translate(4 998.16)"><path fill="none" stroke="#000" d="M1641.35-459.57c-6.23-12.91-14.44-29.93-21.29-44.11"/><circle stroke="#000" cx="1618.16" cy="-507.63" r="4"/></g><g class="node" transform="translate(4 998.16)"><circle fill="none" stroke="#000" cx="1669.9" cy="-718.37" r="28.7"/><text text-anchor="middle" x="1669.9" y="-714.67" font-family="Times,serif" font-size="14">118</text></g><g class="edge" transform="translate(4 998.16)"><path fill="none" stroke="#000" d="M1658.91-460.08c13.99-37.92 40.44-122.2 29.99-193.69-1.44-9.8-4.05-20.19-6.89-29.66"/><circle stroke="#000" cx="1680.79" cy="-687.33" r="4"/></g><g class="node" transform="translate(4 998.16)"><path fill="#ffe5f1" stroke="#000" d="M1593.9-948.16l53.09-34.5H1540.8l53.1 34.5z"/><text text-anchor="middle" x="1593.9" y="-967.46" font-family="Times,serif" font-size="14">oc1</text></g><g class="edge" transform="translate(4 998.16)"><path fill="none" stroke="#000" d="M1604.36-554.8c-3.79-34.48-10.46-103.68-10.46-162.57v-95.19-127.42"/><circle stroke="#000" cx="1593.9" cy="-944.16" r="4"/></g><g class="edge" transform="translate(4 998.16)"><path fill="none" stroke="#000" d="M409.03-196.59c6.1-10.32 13.76-23.27 20.43-34.55"/><circle stroke="#000" cx="431.64" cy="-234.82" r="4"/></g><g class="node" transform="translate(4 998.16)"><circle fill="none" stroke="#000" cx="444.9" cy="-345.59" r="23"/><text text-anchor="middle" x="444.9" y="-341.89" font-family="Times,serif" font-size="14">52</text></g><g class="edge" transform="translate(4 998.16)"><path fill="none" stroke="#000" d="M745.87-188.26c-6.94-3.6-14.78-7.63-21.97-11.24-107.28-53.69-140.87-54.56-243-117.49-4.13-2.54-8.35-5.46-12.38-8.41"/><circle stroke="#000" cx="465.15" cy="-327.96" r="4"/></g><g class="edge" transform="translate(4 998.16)"><path fill="none" stroke="#000" d="M444.9-281.22v-33.36"/><circle stroke="#000" cx="444.9" cy="-318.69" r="4"/></g><g class="node" transform="translate(4 998.16)"><circle fill="none" stroke="#000" cx="321.9" cy="-438.78" r="23"/><text text-anchor="middle" x="321.9" y="-435.08" font-family="Times,serif" font-size="14">64</text></g><g class="edge" transform="translate(4 998.16)"><path fill="none" stroke="#000" d="M427.01-359.85c-21.23-15.74-56.73-42.06-80.53-59.7"/><circle stroke="#000" cx="343.02" cy="-422.13" r="4"/></g><g class="edge" transform="translate(4 998.16)"><path fill="none" stroke="#000" d="M472.74-196.59c6.23-9.9 13.98-22.22 20.86-33.16"/><path stroke="#000" d="M490.84-231.94l8.29-6.6-2.36 10.33-5.93-3.73z"/></g><g class="edge" transform="translate(4 998.16)"><path fill="none" stroke="#000" d="M478.26-191.55c4.28-2.94 8.98-5.8 13.64-7.95 64.2-29.64 146.1-45.88 190.62-53.1"/><path stroke="#000" d="M682.06-256.07l10.42 1.91-9.34 5.01-1.08-6.92z"/></g><g class="node" transform="translate(4 998.16)"><circle fill="none" stroke="#000" cx="512.9" cy="-345.59" r="23"/><text text-anchor="middle" x="512.9" y="-341.89" font-family="Times,serif" font-size="14">60</text></g><g class="edge" transform="translate(4 998.16)"><path fill="none" stroke="#000" d="M511.41-281.22c.24-10.16.52-22.37.78-33.36"/><circle stroke="#000" cx="512.29" cy="-318.69" r="4"/></g><g class="node" transform="translate(4 998.16)"><circle fill="none" stroke="#000" cx="372.9" cy="-345.59" r="23"/><text text-anchor="middle" x="372.9" y="-341.89" font-family="Times,serif" font-size="14">72</text></g><g class="edge" transform="translate(4 998.16)"><path fill="none" stroke="#000" d="M492.31-271.4c-4.97-3.18-10.37-6.56-15.41-9.59-27.98-16.8-36.32-18.72-64-36-5.02-3.14-10.29-6.62-15.3-10.04"/><circle stroke="#000" cx="394.27" cy="-329.32" r="4"/></g><g class="edge" transform="translate(4 998.16)"><path fill="none" stroke="#000" d="M613.59-195.92c-20.3-29.96-60.81-89.78-83.78-123.7"/><circle stroke="#000" cx="527.43" cy="-323.13" r="4"/></g><g class="node" transform="translate(4 998.16)"><circle fill="none" stroke="#000" cx="512.9" cy="-438.78" r="23"/><text text-anchor="middle" x="512.9" y="-435.08" font-family="Times,serif" font-size="14">62</text></g><g class="edge" transform="translate(4 998.16)"><path fill="none" stroke="#000" d="M512.9-368.67v-39.17"/><circle stroke="#000" cx="512.9" cy="-411.91" r="4"/></g><g class="node" transform="translate(4 998.16)"><circle fill="none" stroke="#000" cx="321.9" cy="-531.98" r="23"/><text text-anchor="middle" x="321.9" y="-528.28" font-family="Times,serif" font-size="14">66</text></g><g class="edge" transform="translate(4 998.16)"><path fill="none" stroke="#000" d="M492.45-449.54c-34.46-16.46-104.16-49.74-142.94-68.25"/><circle stroke="#000" cx="345.8" cy="-519.57" r="4"/></g><g class="edge" transform="translate(4 998.16)"><path fill="none" stroke="#000" d="M321.9-461.86v-39.17"/><circle stroke="#000" cx="321.9" cy="-505.11" r="4"/></g><g class="node" transform="translate(4 998.16)"><circle fill="none" stroke="#000" cx="258.9" cy="-531.98" r="23"/><text text-anchor="middle" x="258.9" y="-528.28" font-family="Times,serif" font-size="14">76</text></g><g class="edge" transform="translate(4 998.16)"><path fill="none" stroke="#000" d="M309.15-458.24c-9.54-13.81-22.69-32.84-33.15-47.98"/><circle stroke="#000" cx="273.68" cy="-509.57" r="4"/></g><g class="node" transform="translate(4 998.16)"><circle fill="none" stroke="#000" cx="277.9" cy="-625.17" r="23"/><text text-anchor="middle" x="277.9" y="-621.47" font-family="Times,serif" font-size="14">80</text></g><g class="edge" transform="translate(4 998.16)"><path fill="none" stroke="#000" d="M312.35-552.77c-6.23-12.9-14.44-29.92-21.29-44.11"/><circle stroke="#000" cx="289.16" cy="-600.82" r="4"/></g><g class="edge" transform="translate(4 998.16)"><path fill="none" stroke="#000" d="M344.48-197.81c4.4-9.2 9.7-20.29 14.53-30.38"/><path stroke="#000" d="M355.97-229.95l7.47-7.52-1.15 10.54-6.32-3.02z"/></g><g class="edge" transform="translate(4 998.16)"><path fill="none" stroke="#000" d="M372.9-281.22v-33.36"/><circle stroke="#000" cx="372.9" cy="-318.69" r="4"/></g><g class="node" transform="translate(4 998.16)"><circle fill="none" stroke="#000" cx="258.9" cy="-438.78" r="23"/><text text-anchor="middle" x="258.9" y="-435.08" font-family="Times,serif" font-size="14">74</text></g><g class="edge" transform="translate(4 998.16)"><path fill="none" stroke="#000" d="M354.79-359.86c-17.02-12.62-43.06-32.29-64.89-50.33-2.69-2.22-5.47-4.58-8.21-6.96"/><circle stroke="#000" cx="278.43" cy="-420.02" r="4"/></g><g class="edge" transform="translate(4 998.16)"><path fill="none" stroke="#000" d="M258.9-461.86v-39.17"/><circle stroke="#000" cx="258.9" cy="-505.11" r="4"/></g><g class="node" transform="translate(4 998.16)"><circle fill="none" stroke="#000" cx="214.9" cy="-625.17" r="23"/><text text-anchor="middle" x="214.9" y="-621.47" font-family="Times,serif" font-size="14">78</text></g><g class="edge" transform="translate(4 998.16)"><path fill="none" stroke="#000" d="M249.35-552.77c-6.23-12.9-14.44-29.92-21.29-44.11"/><circle stroke="#000" cx="226.16" cy="-600.82" r="4"/></g><g class="node" transform="translate(4 998.16)"><circle fill="none" stroke="#000" cx="246.9" cy="-718.37" r="23"/><text text-anchor="middle" x="246.9" y="-714.67" font-family="Times,serif" font-size="14">82</text></g><g class="edge" transform="translate(4 998.16)"><path fill="none" stroke="#000" d="M222.16-646.87c4.37-12.47 10.01-28.54 14.8-42.18"/><circle stroke="#000" cx="238.34" cy="-692.98" r="4"/></g><g class="edge" transform="translate(4 998.16)"><path fill="none" stroke="#000" d="M270.86-646.87c-4.21-12.39-9.62-28.31-14.24-41.89"/><circle stroke="#000" cx="255.3" cy="-692.65" r="4"/></g><g class="node" transform="translate(4 998.16)"><path fill="#ffe6cc" stroke="#000" d="M274.4-912.16h-55v36h55v-36z"/><text text-anchor="middle" x="246.9" y="-890.46" font-family="Times,serif" font-size="14">L0_in</text></g><g class="edge" transform="translate(4 998.16)"><path fill="none" stroke="#000" d="M246.9-741.38v-126.58"/><circle stroke="#000" cx="246.9" cy="-872.02" r="4"/></g><g class="node" transform="translate(4 998.16)"><circle fill="none" stroke="#000" cx="1019.9" cy="-438.78" r="23"/><text text-anchor="middle" x="1019.9" y="-435.08" font-family="Times,serif" font-size="14">94</text></g><g class="edge" transform="translate(4 998.16)"><path fill="none" stroke="#000" d="M1105.05-361.65l-61.03-54.57"/><path stroke="#000" d="M1041.55-413.73l-5.13-9.28 9.79 4.06-4.66 5.22z"/></g><g class="node" transform="translate(4 998.16)"><circle fill="none" stroke="#000" cx="1239.9" cy="-438.78" r="23"/><text text-anchor="middle" x="1239.9" y="-435.08" font-family="Times,serif" font-size="14">98</text></g><g class="edge" transform="translate(4 998.16)"><path fill="none" stroke="#000" d="M1139.56-360.24c19.73-15.25 51.84-40.06 74.41-57.51"/><path stroke="#000" d="M1212.06-420.69l10.05-3.35-5.77 8.89-4.28-5.54z"/></g><g class="edge" transform="translate(4 998.16)"><path fill="none" stroke="#000" d="M721.07-280.34c3.13-10.67 6.97-23.78 10.36-35.37"/><circle stroke="#000" cx="732.58" cy="-319.6" r="4"/></g><g class="node" transform="translate(4 998.16)"><circle fill="none" stroke="#000" cx="1121.9" cy="-438.78" r="23"/><text text-anchor="middle" x="1121.9" y="-435.08" font-family="Times,serif" font-size="14">90</text></g><g class="edge" transform="translate(4 998.16)"><path fill="none" stroke="#000" d="M754.65-362.96c4.76-4.33 10.34-8.54 16.25-11.23 114.58-52.19 159.05-4.67 281-36 14.24-3.66 29.5-9.44 42.13-14.77"/><circle stroke="#000" cx="1097.84" cy="-426.6" r="4"/></g><g class="node" transform="translate(4 998.16)"><circle fill="none" stroke="#000" cx="1095.9" cy="-531.98" r="23"/><text text-anchor="middle" x="1095.9" y="-528.28" font-family="Times,serif" font-size="14">92</text></g><g class="edge" transform="translate(4 998.16)"><path fill="none" stroke="#000" d="M1115.86-460.94l-11.15-39.14"/><path stroke="#000" d="M1101.27-499.37l.62-10.57 6.11 8.65-6.73 1.92z"/></g><g class="node" transform="translate(4 998.16)"><circle fill="none" stroke="#000" cx="1172.9" cy="-531.98" r="28.7"/><text text-anchor="middle" x="1172.9" y="-528.28" font-family="Times,serif" font-size="14">100</text></g><g class="edge" transform="translate(4 998.16)"><path fill="none" stroke="#000" d="M1132.71-459.12c6.21-11.11 14.19-25.37 21.39-38.26"/><path stroke="#000" d="M1151.24-499.43l7.94-7.02-1.83 10.44-6.11-3.42z"/></g><g class="node" transform="translate(4 998.16)"><circle fill="none" stroke="#000" cx="1095.9" cy="-625.17" r="23"/><text text-anchor="middle" x="1095.9" y="-621.47" font-family="Times,serif" font-size="14">96</text></g><g class="edge" transform="translate(4 998.16)"><path fill="none" stroke="#000" d="M1095.9-555.05v-39.18"/><circle stroke="#000" cx="1095.9" cy="-598.3" r="4"/></g><g class="edge" transform="translate(4 998.16)"><path fill="none" stroke="#000" d="M1026.65-460.59c8.07-24.3 22.38-65.57 37.25-99.99 5.29-12.26 11.82-25.5 17.59-36.71"/><circle stroke="#000" cx="1083.5" cy="-601.14" r="4"/></g><g class="node" transform="translate(4 998.16)"><circle fill="none" stroke="#000" cx="1308.9" cy="-718.37" r="28.7"/><text text-anchor="middle" x="1308.9" y="-714.67" font-family="Times,serif" font-size="14">106</text></g><g class="edge" transform="translate(4 998.16)"><path fill="none" stroke="#000" d="M1116.71-635.08c36.91-15.81 114.13-48.87 158.63-67.92"/><circle stroke="#000" cx="1279.05" cy="-704.59" r="4"/></g><g class="node" transform="translate(4 998.16)"><circle fill="none" stroke="#000" cx="1239.9" cy="-625.17" r="28.7"/><text text-anchor="middle" x="1239.9" y="-621.47" font-family="Times,serif" font-size="14">102</text></g><g class="edge" transform="translate(4 998.16)"><path fill="none" stroke="#000" d="M1239.9-461.66v-126.5"/><circle stroke="#000" cx="1239.9" cy="-592.32" r="4"/></g><g class="edge" transform="translate(4 998.16)"><path fill="none" stroke="#000" d="M1189.46-555.52c8.77-11.95 19.66-26.76 29.07-39.57"/><circle stroke="#000" cx="1220.92" cy="-598.35" r="4"/></g><g class="node" transform="translate(4 998.16)"><circle fill="none" stroke="#000" cx="1383.9" cy="-718.37" r="28.7"/><text text-anchor="middle" x="1383.9" y="-714.67" font-family="Times,serif" font-size="14">104</text></g><g class="edge" transform="translate(4 998.16)"><path fill="none" stroke="#000" d="M1264.57-639.86c21.98-12.42 54.83-31.56 82.33-49.91 2.54-1.7 5.16-3.51 7.76-5.36"/><circle stroke="#000" cx="1358.23" cy="-697.71" r="4"/></g><g class="node" transform="translate(4 998.16)"><circle fill="none" stroke="#000" cx="1346.9" cy="-811.56" r="28.7"/><text text-anchor="middle" x="1346.9" y="-807.86" font-family="Times,serif" font-size="14">108</text></g><g class="edge" transform="translate(4 998.16)"><path fill="none" stroke="#000" d="M1373.39-745.26c-4.02-9.91-8.67-21.37-12.94-31.89"/><circle stroke="#000" cx="1358.93" cy="-780.9" r="4"/></g><g class="edge" transform="translate(4 998.16)"><path fill="none" stroke="#000" d="M1319.68-745.26c4.17-10 8.99-21.56 13.4-32.16"/><circle stroke="#000" cx="1334.67" cy="-781.23" r="4"/></g><g class="node" transform="translate(4 998.16)"><path fill="#ffe6cc" stroke="#000" d="M1374.4-912.16h-55v36h55v-36z"/><text text-anchor="middle" x="1346.9" y="-890.46" font-family="Times,serif" font-size="14">L1_in</text></g><g class="edge" transform="translate(4 998.16)"><path fill="none" stroke="#000" d="M1346.9-840.3v-27.65"/><circle stroke="#000" cx="1346.9" cy="-871.95" r="4"/></g><g class="node" transform="translate(4 998.16)"><circle fill="none" stroke="#000" cx="1457.9" cy="-531.98" r="28.7"/><text text-anchor="middle" x="1457.9" y="-528.28" font-family="Times,serif" font-size="14">114</text></g><g class="edge" transform="translate(4 998.16)"><path fill="none" stroke="#000" d="M1457.9-374.19v-120.85"/><circle stroke="#000" cx="1457.9" cy="-499.19" r="4"/></g><g class="edge" transform="translate(4 998.16)"><path fill="none" stroke="#000" d="M1405.95-462.33c9.11-12.03 20.42-26.98 30.16-39.85"/><circle stroke="#000" cx="1438.62" cy="-505.51" r="4"/></g><g class="node" transform="translate(4 998.16)"><circle fill="none" stroke="#000" cx="1650.9" cy="-625.17" r="28.7"/><text text-anchor="middle" x="1650.9" y="-621.47" font-family="Times,serif" font-size="14">116</text></g><g class="edge" transform="translate(4 998.16)"><path fill="none" stroke="#000" d="M1483.52-545.09c34.61-16.35 96.32-45.51 134.36-63.49"/><circle stroke="#000" cx="1621.54" cy="-610.31" r="4"/></g><g class="edge" transform="translate(4 998.16)"><path fill="none" stroke="#000" d="M1656.6-653.54c1.86-8.92 3.95-18.97 5.91-28.4"/><circle stroke="#000" cx="1663.38" cy="-686.11" r="4"/></g><g class="node" transform="translate(4 998.16)"><path fill="#ffe6cc" stroke="#000" d="M1697.4-912.16h-55v36h55v-36z"/><text text-anchor="middle" x="1669.9" y="-890.46" font-family="Times,serif" font-size="14">L2_in</text></g><g class="edge" transform="translate(4 998.16)"><path fill="none" stroke="#000" d="M1669.9-747.29v-120.56"/><circle stroke="#000" cx="1669.9" cy="-871.87" r="4"/></g><g class="node" transform="translate(4 998.16)"><path fill="#ffe5f1" stroke="#000" d="M1745.9-948.16l53.09-34.5H1692.8l53.1 34.5z"/><text text-anchor="middle" x="1745.9" y="-967.46" font-family="Times,serif" font-size="14">oc0</text></g><g class="node" transform="translate(4 998.16)"><path fill="#e9f4fb" stroke="#000" d="M1590.9-46l-64.99 34.5h129.97L1590.9-46z"/><text text-anchor="middle" x="1590.9" y="-19.3" font-family="Times,serif" font-size="14">init0</text></g><g class="edge" transform="translate(4 998.16)"><path fill="none" stroke="#000" d="M1565.47-32.53C1532.8-43.56 1474.39-63.57 1424.9-82c-156.21-58.16-341-133.35-412.58-162.71"/><path stroke="#000" d="M1010.91-241.51l-7.92-7.04 10.58.56-2.66 6.48z"/></g><g class="edge" transform="translate(4 998.16)"><path fill="none" stroke="#000" d="M1569.37-34.67c-96.68-47.9-490.7-243.14-598.25-296.43"/><circle stroke="#000" cx="967.47" cy="-332.91" r="4"/></g><g class="edge" transform="translate(4 998.16)"><path fill="none" stroke="#000" d="M1596.68-43.13c3.1-11.21 6.6-25.71 8.22-38.87 10.15-82.63 6.83-180.98 4.1-230.59"/><path stroke="#000" d="M1605.5-312.51l2.91-10.18 4.08 9.78-6.99.4z"/></g><g class="edge" transform="translate(4 998.16)"><path fill="none" stroke="#000" d="M1601.29-40.57c6.52-11.25 14.44-26.7 18.61-41.43 33.07-117.11 33.65-263.78 32.12-325.84"/><circle stroke="#000" cx="1651.91" cy="-412.03" r="4"/></g><g class="edge" transform="translate(4 998.16)"><path fill="none" stroke="#000" d="M1587.91-44.61c-8.46-60.33-32.01-241.78-32.01-393.17v-95.2c0-55.01 7.96-78.32-27-120.79-26.84-32.6-73.68-48.98-106.85-56.86"/><path stroke="#000" d="M1421.23-707.23l-9-5.58 10.52-1.25-1.52 6.83z"/></g><g class="edge" transform="translate(4 998.16)"><path fill="none" stroke="#000" d="M1583.47-42.07c-19.12-48.24-68.57-184.4-68.57-302.52v-188.39c0-23.46-120.21-118.67-176.97-162.33"/><circle stroke="#000" cx="1334.51" cy="-697.93" r="4"/></g><g class="edge" transform="translate(4 998.16)"><path fill="none" stroke="#000" d="M1613.52-34.1c41.69-20.33 126.38-70.39 126.38-141.65v-170.84c0-91.95-44.84-193.21-70.86-244.24"/><path stroke="#000" d="M1665.9-589.27l-1.49-10.49 7.71 7.27-6.22 3.22z"/></g><g class="node" transform="translate(4 998.16)"><path fill="#e9f4fb" stroke="#000" d="M1032.9-46l-64.99 34.5h129.97L1032.9-46z"/><text text-anchor="middle" x="1032.9" y="-19.3" font-family="Times,serif" font-size="14">init1</text></g><g class="edge" transform="translate(4 998.16)"><path fill="none" stroke="#000" d="M992.05-24.45C825.37-26.56 201.91-37.39 126.9-82c-42.32-25.16-59-44.52-59-93.75v-83.49c0-51.41 5.42-110.91 9.26-146.6"/><path stroke="#000" d="M73.72-406.55l4.58-9.56 2.38 10.32-6.96-.76z"/></g><g class="edge" transform="translate(4 998.16)"><path fill="none" stroke="#000" d="M990.93-23.86c-166.09.18-771.45-3-835.03-58.14-41.46-35.95-43.34-105.59-40.52-145.41"/><circle stroke="#000" cx="115.72" cy="-231.44" r="4"/></g><g class="edge" transform="translate(4 998.16)"><path fill="none" stroke="#000" d="M992.35-24.55C836.54-27 281.79-38.69 216.9-82c-38.77-25.87-47-47.14-47-93.75v-264.03c0-55.88 19.74-118.63 33.07-154.63"/><path stroke="#000" d="M199.72-595.72l6.82-8.11-.27 10.59-6.55-2.48z"/></g><g class="edge" transform="translate(4 998.16)"><path fill="none" stroke="#000" d="M992.63-24.76C842.35-27.91 319.74-41.68 257.9-82c-39.56-25.79-50-46.53-50-93.75v-264.03c0-54.35-2.96-71.09 19-120.8 6.94-15.73 18.78-30.85 29.31-42.4"/><circle stroke="#000" cx="259.14" cy="-606.1" r="4"/></g><g class="edge" transform="translate(4 998.16)"><path fill="none" stroke="#000" d="M1040.58-42.32c11.11-28.15 30.32-84 30.32-133.43v-170.84c0-54.1 10.69-116.33 18.09-152.9"/><path stroke="#000" d="M1085.62-500.45l5.45-9.08 1.4 10.5-6.85-1.42z"/></g><g class="edge" transform="translate(4 998.16)"><path fill="none" stroke="#000" d="M1032.21-45.66c-2.16-68.83-8.88-282.65-11.37-362.05"/><circle stroke="#000" cx="1020.71" cy="-411.84" r="4"/></g><g class="edge" transform="translate(4 998.16)"><path fill="none" stroke="#000" d="M1068.38-27.3c35.6-5.3 89.22-19.05 118.52-54.7 40.42-49.19 50.07-245.74 52.33-323.7"/><path stroke="#000" d="M1235.73-405.98l3.77-9.9 3.23 10.09-7-.19z"/></g><g class="edge" transform="translate(4 998.16)"><path fill="none" stroke="#000" d="M1046.46-38.98c28.61-32.72 94.46-114.24 118.44-196.52 26.35-90.44 19.02-203.12 12.76-259.63"/><circle stroke="#000" cx="1177.17" cy="-499.4" r="4"/></g><g class="edge" transform="translate(4 998.16)"><path fill="none" stroke="#000" d="M1071.07-25.85c48.39-3.98 132.61-16.54 191.83-56.15 87.89-58.79 151.1-171.01 179.02-227.81"/><path stroke="#000" d="M1438.91-311.61l7.5-7.48-1.2 10.53-6.3-3.05z"/></g><g class="edge" transform="translate(4 998.16)"><path fill="none" stroke="#000" d="M1067.85-27.55c38.57-5.58 100.56-19.62 141.05-54.45 1.7-1.47 119.94-236.38 163.83-323.64"/><circle stroke="#000" cx="1374.58" cy="-409.31" r="4"/></g><g class="node" transform="translate(4 998.16)"><path fill="#e9f4fb" stroke="#000" d="M1263.9-46l-49.3 34.5h98.59L1263.9-46z"/><text text-anchor="middle" x="1263.9" y="-19.3" font-family="Times,serif" font-size="14">inc</text></g><g class="edge" transform="translate(4 998.16)"><path fill="none" stroke="#000" d="M1288.45-29.17c26.67-7.02 68.16-22.36 88.45-52.83 47.41-71.23 31.81-178.98 20.06-231.55"/><path stroke="#000" d="M1393.55-312.76l1.13-10.54 5.69 8.94-6.82 1.6z"/></g><g class="edge" transform="translate(4 998.16)"><path fill="none" stroke="#000" d="M1289.48-28.11c32.57-6.4 88.98-21.55 125.42-53.89 40.79-36.21 48.85-103.3 49.77-143.14"/><path stroke="#000" d="M1461.17-225.4l3.59-9.96 3.41 10.03-7-.07z"/></g><g class="edge" transform="translate(4 998.16)"><path fill="none" stroke="#000" d="M1245.97-33.64C1195.89-61.08 1051.5-143.53 949.9-235.5c-59.37-53.73-46.19-97.74-115-138.69-93.78-55.8-227.45-63.7-288.84-64.14"/><path stroke="#000" d="M545.8-434.83l-10-3.51 10.01-3.49-.01 7z"/></g><g class="edge" transform="translate(4 998.16)"><path fill="none" stroke="#000" d="M1238.41-28.28c-30.99-5.04-84.94-13.28-131.51-17.72-156.83-14.95-559.87 17.6-708-36-62.01-22.43-115-27.81-115-93.75v-83.49c0-53.99 16.82-115.18 28.08-150.09"/><circle stroke="#000" cx="313.32" cy="-413.4" r="4"/></g><g class="edge" transform="translate(4 998.16)"><path fill="none" stroke="#000" d="M1238.42-28.32c-30.99-5.09-84.93-13.38-131.52-17.68-88.5-8.18-721.7 7.83-799-36-43.46-24.64-62-43.79-62-93.75v-83.49c0-51.41 5.42-110.91 9.26-146.6"/><path stroke="#000" d="M251.72-406.55l4.58-9.56 2.38 10.32-6.96-.76z"/></g><g class="edge" transform="translate(4 998.16)"><path fill="none" stroke="#000" d="M1255.71-40.56c-17.42-35.45-59.15-121.4-90.81-194.94-11.39-26.43-23.31-56.93-31.7-78.95"/><path stroke="#000" d="M1129.88-313.33l-.28-10.59 6.82 8.1-6.54 2.49z"/></g><g class="edge" transform="translate(4 998.16)"><path fill="none" stroke="#000" d="M1275.2-38.28c8.08-11.18 18.29-27.5 22.7-43.72 4.19-15.44 3.98-20.5 0-36-30.79-119.77-116.9-242.75-156.11-294.46"/><path stroke="#000" d="M1139-410.35l-3.3-10.07 8.85 5.81-5.55 4.26z"/></g><g class="edge" transform="translate(4 998.16)"><path fill="none" stroke="#000" d="M1290.05-27.85c36.57-6.38 103.9-21.77 151.85-54.15 228.93-154.63 304-265.91 304-542.17v-188.39-125.46"/><path stroke="#000" d="M1742.4-938.16l3.5-10 3.5 10h-7z"/></g></g></svg>