<svg width="607pt" height="377pt" viewBox="0 0 606.5 377" xmlns="http://www.w3.org/2000/svg" xmlns:xlink="http://www.w3.org/1999/xlink"><g class="graph" transform="translate(4 373)"><path fill="#fff" stroke="transparent" d="M-4 4v-377h606.5V4H-4z"/><g class="node"><a xlink:title="[0]"><path fill="#e9f4fb" stroke="#000" d="M119-332H12c-6 0-12 6-12 12v12c0 6 6 12 12 12h107c6 0 12-6 12-12v-12c0-6-6-12-12-12"/><text text-anchor="middle" x="65.5" y="-310.3" font-family="Times,serif" font-size="14">G(q -&gt; Fr) | GFc</text></a></g><g class="edge"><a xlink:title="initial state"><path fill="none" stroke="#000" d="M65.5-367.85v25.75"/><path stroke="#000" d="M69-342.02l-3.5 10-3.5-10h7z"/></a></g><g class="node"><a xlink:title="bdd(30)"><circle fill="#fff" stroke="#000" cx="124.5" cy="-242" r="18"/><text text-anchor="middle" x="124.5" y="-238.3" font-family="Times,serif" font-size="14">q</text></a></g><g class="edge"><a xlink:title="[0]"><path fill="none" stroke="#000" d="M80.08-295.7c8 9.49 17.98 21.34 26.46 31.39"/><path stroke="#000" d="M109.46-266.28l3.77 9.9-9.12-5.39 5.35-4.51z"/></a></g><g class="node"><a xlink:title="[1]"><path fill="#e9f4fb" stroke="#000" d="M317.5-332h-156c-6 0-12 6-12 12v12c0 6 6 12 12 12h156c6 0 12-6 12-12v-12c0-6-6-12-12-12"/><text text-anchor="middle" x="239.5" y="-310.3" font-family="Times,serif" font-size="14">GFc | (Fr &amp; G(q -&gt; Fr))</text></a></g><g class="node"><a xlink:title="bdd(29)"><circle fill="#fff" stroke="#000" cx="220.5" cy="-170" r="18"/><text text-anchor="middle" x="220.5" y="-166.3" font-family="Times,serif" font-size="14">r</text></a></g><g class="edge"><a xlink:title="[1]"><path fill="none" stroke="#000" d="M237.21-295.87c-3.24 24.2-9.19 68.66-13.04 97.48"/><path stroke="#000" d="M227.6-197.64l-4.8 9.45-2.14-10.38 6.94.93z"/></a></g><g class="edge"><a xlink:title="q=1"><path fill="none" stroke="#000" d="M138.67-230.67c15.59 11.37 40.89 29.82 59.23 43.19"/><path stroke="#000" d="M200.26-190.09l6.02 8.72-10.15-3.06 4.13-5.66z"/></a></g><g class="node"><a xlink:title="bdd(6)=term(1)=[0]"><path fill="#ffe5f1" stroke="#000" d="M178-40H71c-6 0-12 6-12 12v12c0 6 6 12 12 12h107c6 0 12-6 12-12v-12c0-6-6-12-12-12"/><path fill="none" stroke="#000" d="M182-44H67c-6 0-12 6-12 12v20c0 6 6 12 12 12h115c6 0 12-6 12-12v-20c0-6-6-12-12-12"/><text text-anchor="middle" x="124.5" y="-18.3" font-family="Times,serif" font-size="14">G(q -&gt; Fr) | GFc</text></a></g><g class="edge"><a xlink:title="q=0"><path fill="none" stroke="#000" stroke-dasharray="1,5" d="M124.5-223.89v169.63"/><path stroke="#000" d="M128-54.12l-3.5 10-3.5-10h7z"/></a></g><g class="node"><a xlink:title="bdd(28)"><circle fill="#fff" stroke="#000" cx="306.5" cy="-98" r="18"/><text text-anchor="middle" x="306.5" y="-94.3" font-family="Times,serif" font-size="14">c</text></a></g><g class="edge"><a xlink:title="r=0"><path fill="none" stroke="#000" stroke-dasharray="1,5" d="M234.32-157.75c13.62 11.08 34.64 28.19 50.49 41.09"/><path stroke="#000" d="M287.45-119.02l5.55 9.03-9.96-3.6 4.41-5.43z"/></a></g><g class="edge"><a xlink:title="r=1"><path fill="none" stroke="#000" d="M210.94-154.47c-15.54 23.64-46.59 70.86-66.93 101.81"/><path stroke="#000" d="M146.74-50.45l-8.42 6.43 2.57-10.27 5.85 3.84z"/></a></g><g class="node"><a xlink:title="bdd(7)=term(2)=[1]"><path fill="#ffe5f1" stroke="#000" d="M586.5-40h-156c-6 0-12 6-12 12v12c0 6 6 12 12 12h156c6 0 12-6 12-12v-12c0-6-6-12-12-12"/><text text-anchor="middle" x="508.5" y="-18.3" font-family="Times,serif" font-size="14">GFc | (Fr &amp; G(q -&gt; Fr))</text></a></g><g class="edge"><a xlink:title="c=0"><path fill="none" stroke="#000" stroke-dasharray="1,5" d="M323.37-90.82c28.04 10.27 85.42 31.29 128.91 47.23"/><path stroke="#000" d="M453.71-46.8l8.18 6.73-10.59-.16 2.41-6.57z"/></a></g><g class="node"><a xlink:title="bdd(27)=term(3)=[1]"><path fill="#ffe5f1" stroke="#000" d="M384.5-40h-156c-6 0-12 6-12 12v12c0 6 6 12 12 12h156c6 0 12-6 12-12v-12c0-6-6-12-12-12"/><path fill="none" stroke="#000" d="M388.5-44h-164c-6 0-12 6-12 12v20c0 6 6 12 12 12h164c6 0 12-6 12-12v-20c0-6-6-12-12-12"/><text text-anchor="middle" x="306.5" y="-18.3" font-family="Times,serif" font-size="14">GFc | (Fr &amp; G(q -&gt; Fr))</text></a></g><g class="edge"><a xlink:title="c=1"><path fill="none" stroke="#000" d="M306.5-79.84v25.79"/><path stroke="#000" d="M310-54.03l-3.5 10-3.5-10h7z"/></a></g></g></svg>