<?xml-stylesheet href="spot.css" type="text/css"?><svg width="1990pt" height="436" viewBox="0 0 1989.5 326.85" xmlns="http://www.w3.org/2000/svg"><g class="graph"><path fill="#fff" stroke="transparent" d="M0 326.85V0h1989.5v326.85H0z"/><g class="node" transform="translate(4 322.85)"><circle fill="#ffffa0" stroke="#000" cx="56" cy="-118.85" r="18"/><text text-anchor="middle" x="56" y="-115.75" font-family="Lato" font-size="12">0</text></g><g class="edge" transform="translate(4 322.85)"><path fill="none" stroke="#000" d="M1.15-118.85h29.48"/><path stroke="#000" d="M37.94-118.85l-7-3.15 3.5 3.15h-3.5 3.5l-3.5 3.15 7-3.15h0z"/></g><g class="node" transform="translate(4 322.85)"><circle fill="#ffffa0" stroke="#000" cx="1945" cy="-144.85" r="18"/><text text-anchor="middle" x="1945" y="-141.75" font-family="Lato" font-size="12">1</text></g><g class="edge" transform="translate(4 322.85)"><path fill="none" stroke="#000" d="M67.91-132.47c6.3-6.91 14.81-14.8 24.09-19.38 173.2-85.57 235.81-70 429-70h1069c142.36 0 187.05-12.15 317 46 7.11 3.18 13.94 8.14 19.75 13.17"/><path stroke="#000" d="M1932.2-157.7l-3.04-7.05.46 4.69-2.58-2.36h0l2.58 2.36-4.71-.04 7.29 2.4h0z"/><path fill="#e9f4fb" stroke="transparent" d="M964-299.35v-17h119v17H964z"/><text x="966" y="-304.75" font-family="Lato" font-size="12">!inc &amp; !init0 &amp; !init1</text><text x="1087" y="-304.75" font-family="Lato" font-size="12">/</text><path fill="#ffe5f1" stroke="transparent" d="M1095-299.35v-17h161v17h-161z"/><text x="1097" y="-304.75" font-family="Lato" font-size="12">!ob0 &amp; !ob1 &amp; !oc0 &amp; !oc1</text><path fill="#e9f4fb" stroke="transparent" d="M964-280.35v-17h119v17H964z"/><text x="970" y="-285.75" font-family="Lato" font-size="12">inc &amp; !init0 &amp; !init1</text><text x="1087" y="-285.75" font-family="Lato" font-size="12">/</text><path fill="#ffe5f1" stroke="transparent" d="M1095-280.35v-17h161v17h-161z"/><text x="1097" y="-285.75" font-family="Lato" font-size="12">!ob0 &amp; !ob1 &amp; oc0 &amp; !oc1</text><path fill="#e9f4fb" stroke="transparent" d="M964-261.35v-17h119v17H964z"/><text x="970" y="-266.75" font-family="Lato" font-size="12">!inc &amp; !init0 &amp; init1</text><text x="1087" y="-266.75" font-family="Lato" font-size="12">/</text><path fill="#ffe5f1" stroke="transparent" d="M1095-261.35v-17h161v17h-161z"/><text x="1097" y="-266.75" font-family="Lato" font-size="12">!ob0 &amp; ob1 &amp; !oc0 &amp; !oc1</text><path fill="#e9f4fb" stroke="transparent" d="M964-242.35v-17h119v17H964z"/><text x="970" y="-247.75" font-family="Lato" font-size="12">!inc &amp; init0 &amp; !init1</text><text x="1087" y="-247.75" font-family="Lato" font-size="12">/</text><path fill="#ffe5f1" stroke="transparent" d="M1095-242.35v-17h161v17h-161z"/><text x="1097" y="-247.75" font-family="Lato" font-size="12">ob0 &amp; !ob1 &amp; !oc0 &amp; !oc1</text><path fill="#e9f4fb" stroke="transparent" d="M964-223.35v-17h119v17H964z"/><text x="975" y="-228.75" font-family="Lato" font-size="12">!inc &amp; init0 &amp; init1</text><text x="1087" y="-228.75" font-family="Lato" font-size="12">/</text><path fill="#ffe5f1" stroke="transparent" d="M1095-223.35v-17h161v17h-161z"/><text x="1097" y="-228.75" font-family="Lato" font-size="12">ob0 &amp; ob1 &amp; !oc0 &amp; !oc1</text></g><g class="node" transform="translate(4 322.85)"><circle fill="#ffffa0" stroke="#000" cx="1110" cy="-127.85" r="18"/><text text-anchor="middle" x="1110" y="-124.75" font-family="Lato" font-size="12">2</text></g><g class="edge" transform="translate(4 322.85)"><path fill="none" stroke="#000" d="M73.57-124.03c5.77-1.55 12.33-3.05 18.43-3.82 393.41-49.78 879.28-12.22 992.59-2.25"/><path stroke="#000" d="M1091.81-129.46l-6.7-3.76 3.21 3.45-3.48-.31h0l3.48.31-3.76 2.83 7.25-2.52h0z"/><path fill="#e9f4fb" stroke="transparent" d="M385-154.35v-17h110v17H385z"/><text x="387" y="-159.75" font-family="Lato" font-size="12">inc &amp; !init0 &amp; init1</text><text x="499" y="-159.75" font-family="Lato" font-size="12">/</text><path fill="#ffe5f1" stroke="transparent" d="M507-154.35v-17h152v17H507z"/><text x="509" y="-159.75" font-family="Lato" font-size="12">!ob0 &amp; ob1 &amp; oc0 &amp; !oc1</text></g><g class="node" transform="translate(4 322.85)"><circle fill="#ffffa0" stroke="#000" cx="522" cy="-87.85" r="18"/><text text-anchor="middle" x="522" y="-84.75" font-family="Lato" font-size="12">3</text></g><g class="edge" transform="translate(4 322.85)"><path fill="none" stroke="#000" d="M73.12-112.25c5.85 2.11 12.57 4.2 18.88 5.4 151.64 28.73 338.57 23.42 404.55 20.33"/><path stroke="#000" d="M503.63-86.86l-7.14-2.81 3.65 2.98-3.5.17h0l3.5-.17-3.35 3.31 6.84-3.48h0z"/><path fill="#e9f4fb" stroke="transparent" d="M94.5-108.35v-17h110v17h-110z"/><text x="96.5" y="-113.75" font-family="Lato" font-size="12">inc &amp; init0 &amp; !init1</text><text x="208.5" y="-113.75" font-family="Lato" font-size="12">/</text><path fill="#ffe5f1" stroke="transparent" d="M216.5-108.35v-17h147v17h-147z"/><text x="218.5" y="-113.75" font-family="Lato" font-size="12">ob0 &amp; !ob1 &amp; oc0 &amp; oc1</text></g><g class="node" transform="translate(4 322.85)"><circle fill="#ffffa0" stroke="#000" cx="1589" cy="-118.85" r="18"/><text text-anchor="middle" x="1589" y="-115.75" font-family="Lato" font-size="12">4</text></g><g class="edge" transform="translate(4 322.85)"><path fill="none" stroke="#000" d="M66.37-103.59C72.52-95.03 81.38-85.06 92-79.85c234.9 115.04 325.61 32.66 587 42 353.16 12.61 455.5 85.05 795-13 36.63-10.58 73.53-35.89 95.05-52.47"/><path stroke="#000" d="M1574.7-107.75l-7.46 1.84 4.7.32-2.75 2.16h0l2.75-2.16-.81 4.64 3.57-6.8h0z"/><path fill="#e9f4fb" stroke="transparent" d="M681.5-39.35v-17h106v17h-106z"/><text x="683.5" y="-44.75" font-family="Lato" font-size="12">inc &amp; init0 &amp; init1</text><text x="791.5" y="-44.75" font-family="Lato" font-size="12">/</text><path fill="#ffe5f1" stroke="transparent" d="M799.5-39.35v-17h143v17h-143z"/><text x="801.5" y="-44.75" font-family="Lato" font-size="12">ob0 &amp; ob1 &amp; oc0 &amp; oc1</text></g><g class="edge" transform="translate(4 322.85)"><path fill="none" stroke="#000" d="M1928.73-152.99c-16.91-12.32-11.49-27.86 16.27-27.86 24.29 0 31.48 11.89 21.56 23.12"/><path stroke="#000" d="M1961.27-152.99l7.31-2.32-4.7-.01 2.61-2.34h0l-2.61 2.34.51-4.68-3.12 7.01h0z"/><path fill="#e9f4fb" stroke="transparent" d="M1911-201.85v-17h26v17h-26z"/><text x="1913" y="-207.25" font-family="Lato" font-size="12">!inc</text><text x="1941" y="-207.25" font-family="Lato" font-size="12">/</text><path fill="#ffe5f1" stroke="transparent" d="M1949-201.85v-17h31v17h-31z"/><text x="1951" y="-207.25" font-family="Lato" font-size="12">!oc0</text><path fill="#e9f4fb" stroke="transparent" d="M1911-182.85v-17h26v17h-26z"/><text x="1917" y="-188.25" font-family="Lato" font-size="12">inc</text><text x="1941" y="-188.25" font-family="Lato" font-size="12">/</text><path fill="#ffe5f1" stroke="transparent" d="M1949-182.85v-17h31v17h-31z"/><text x="1951" y="-188.25" font-family="Lato" font-size="12">oc0</text></g><g class="edge" transform="translate(4 322.85)"><path fill="none" stroke="#000" d="M1127.81-130.58c29.77-4.69 93.77-14.19 148.19-18.27 189.74-14.26 237.74-7.78 428-10 90.22-1.06 114.25-16.23 203 0 4.9.89 10 2.41 14.78 4.11"/><path stroke="#000" d="M1928.52-152.14l-5.4-5.46 2.13 4.2-3.27-1.26h0l3.27 1.26-4.4 1.68 7.67-.42h0z"/><path fill="#e9f4fb" stroke="transparent" d="M1494-159.35v-17h26v17h-26z"/><text x="1496" y="-164.75" font-family="Lato" font-size="12">!inc</text><text x="1524" y="-164.75" font-family="Lato" font-size="12">/</text><path fill="#ffe5f1" stroke="transparent" d="M1532-159.35v-17h152v17h-152z"/><text x="1534" y="-164.75" font-family="Lato" font-size="12">ob0 &amp; ob1 &amp; !oc0 &amp; !oc1</text></g><g class="edge" transform="translate(4 322.85)"><path fill="none" stroke="#000" d="M1128.26-127.53c72.31 1.37 351.04 6.62 435.41 8.22"/><path stroke="#000" d="M1570.76-119.18l-6.93-3.28 3.44 3.21-3.5-.06h0l3.5.06-3.56 3.09 7.05-3.02h0z"/><path fill="#e9f4fb" stroke="transparent" d="M1287-125.35v-17h22v17h-22z"/><text x="1289" y="-130.75" font-family="Lato" font-size="12">inc</text><text x="1313" y="-130.75" font-family="Lato" font-size="12">/</text><path fill="#ffe5f1" stroke="transparent" d="M1321-125.35v-17h143v17h-143z"/><text x="1323" y="-130.75" font-family="Lato" font-size="12">ob0 &amp; ob1 &amp; oc0 &amp; oc1</text></g><g class="edge" transform="translate(4 322.85)"><path fill="none" stroke="#000" d="M540.24-87.82c57.36.1 246.98.39 403.76-.03 329.78-.89 412.24-.13 742-4 98.23-1.16 133.46 40.58 221-4 11.17-5.69 19.89-16.49 26.04-26.51"/><path stroke="#000" d="M1936.55-128.44l-6.23 4.49 4.48-1.46-1.75 3.03h0l1.75-3.03.98 4.6.77-7.63h0z"/><path fill="#e9f4fb" stroke="transparent" d="M1278-90.35v-17h26v17h-26z"/><text x="1280" y="-95.75" font-family="Lato" font-size="12">!inc</text><text x="1308" y="-95.75" font-family="Lato" font-size="12">/</text><path fill="#ffe5f1" stroke="transparent" d="M1316-90.35v-17h156v17h-156z"/><text x="1318" y="-95.75" font-family="Lato" font-size="12">!ob0 &amp; ob1 &amp; !oc0 &amp; !oc1</text></g><g class="edge" transform="translate(4 322.85)"><path fill="none" stroke="#000" d="M540.28-88.13c57.46-1.02 247.36-5.27 403.72-18.72 50.34-4.34 108.95-12.56 141-17.33"/><path stroke="#000" d="M1092.18-125.25l-7.39-2.08 3.93 2.6-3.46.51h0l3.46-.51-2.99 3.63 6.45-4.15h0z"/><path fill="#e9f4fb" stroke="transparent" d="M718.5-108.35v-17h22v17h-22z"/><text x="720.5" y="-113.75" font-family="Lato" font-size="12">inc</text><text x="744.5" y="-113.75" font-family="Lato" font-size="12">/</text><path fill="#ffe5f1" stroke="transparent" d="M752.5-108.35v-17h152v17h-152z"/><text x="754.5" y="-113.75" font-family="Lato" font-size="12">!ob0 &amp; ob1 &amp; oc0 &amp; !oc1</text></g><g class="edge" transform="translate(4 322.85)"><path fill="none" stroke="#000" d="M1606.7-115.41c48.06 9.18 190.37 31.32 300.3-3.44 6.6-2.09 13.04-5.82 18.65-9.82"/><path stroke="#000" d="M1931.37-133.04l-7.47 1.74 4.69.38-2.78 2.13h0l2.78-2.13-.87 4.63 3.65-6.75h0z"/><path fill="#e9f4fb" stroke="transparent" d="M1706.5-139.85v-17h26v17h-26z"/><text x="1708.5" y="-145.25" font-family="Lato" font-size="12">!inc</text><text x="1736.5" y="-145.25" font-family="Lato" font-size="12">/</text><path fill="#ffe5f1" stroke="transparent" d="M1744.5-139.85v-17h161v17h-161z"/><text x="1746.5" y="-145.25" font-family="Lato" font-size="12">!ob0 &amp; !ob1 &amp; !oc0 &amp; !oc1</text><path fill="#e9f4fb" stroke="transparent" d="M1706.5-120.85v-17h26v17h-26z"/><text x="1712.5" y="-126.25" font-family="Lato" font-size="12">inc</text><text x="1736.5" y="-126.25" font-family="Lato" font-size="12">/</text><path fill="#ffe5f1" stroke="transparent" d="M1744.5-120.85v-17h161v17h-161z"/><text x="1746.5" y="-126.25" font-family="Lato" font-size="12">!ob0 &amp; !ob1 &amp; oc0 &amp; !oc1</text></g></g></svg>