<?xml-stylesheet href="spot.css" type="text/css"?><svg width="200pt" height="88pt" viewBox="0 0 200 88" xmlns="http://www.w3.org/2000/svg"><g class="graph" transform="translate(4 84)"><path fill="#fff" stroke="transparent" d="M-4 4v-88h200V4H-4z"/><g class="node"><path fill="#ffffa0" stroke="#000" d="M76-36H50c-6 0-12 6-12 12v12c0 6 6 12 12 12h26c6 0 12-6 12-12v-12c0-6-6-12-12-12"/><text text-anchor="middle" x="63" y="-14.9" font-family="Lato" font-size="12">a M b</text></g><g class="edge"><path fill="none" stroke="#000" d="M1.04-18h29.68"/><path stroke="#000" d="M37.8-18l-7-3.15L34.3-18h-3.5 3.5l-3.5 3.15 7-3.15h0z"/></g><g class="edge"><path fill="none" stroke="#000" d="M55.4-36.15C54.23-45.54 56.77-54 63-54c4.58 0 7.16 4.56 7.75 10.7"/><path stroke="#000" d="M70.6-36.15l3.29-6.94-3.22 3.44.07-3.5h0l-.07 3.5-3.08-3.57 3.01 7.07h0z"/><text x="44.5" y="-57.4" font-family="Lato" font-size="12">!a &amp; b</text></g><g class="node"><path fill="#ffffa0" stroke="#000" d="M180-36h-12c-6 0-12 6-12 12v12c0 6 6 12 12 12h12c6 0 12-6 12-12v-12c0-6-6-12-12-12"/><text text-anchor="middle" x="174" y="-14.9" font-family="Lato" font-size="12">1</text></g><g class="edge"><path fill="none" stroke="#000" d="M88.19-18h60.5"/><path stroke="#000" d="M155.98-18l-7-3.15 3.5 3.15h-3.5 3.5l-3.5 3.15 7-3.15h0z"/><text x="106" y="-34.4" font-family="Lato" font-size="12">a &amp; b</text><text x="115.5" y="-21.4" font-family="Lato" font-size="12" fill="#1f78b4">⓿</text></g><g class="edge"><path fill="none" stroke="#000" d="M164.59-36.15C163.15-45.54 166.28-54 174-54c5.67 0 8.87 4.56 9.59 10.7"/><path stroke="#000" d="M183.41-36.15l3.33-6.92-3.24 3.42.09-3.5h0l-.09 3.5-3.06-3.58 2.97 7.08h0z"/><text x="170" y="-70.4" font-family="Lato" font-size="12">1</text><text x="167.5" y="-57.4" font-family="Lato" font-size="12" fill="#1f78b4">⓿</text></g></g></svg>