<?xml-stylesheet href="spot.css" type="text/css"?><svg width="532" height="139pt" viewBox="0 0 399 139.27" xmlns="http://www.w3.org/2000/svg"><g class="graph" transform="translate(4 135.27)"><path fill="#fff" stroke="transparent" d="M-4 4v-139.27h399V4H-4z"/><g class="node"><path fill="#ffffa0" stroke="#000" d="M135-56.27H50c-6 0-12 6-12 12v12c0 6 6 12 12 12h85c6 0 12-6 12-12v-12c0-6-6-12-12-12"/><text x="46" y="-35.17" font-family="Lato" font-size="12">G(q -&gt; Fr) | GFc</text></g><g class="edge"><path fill="none" stroke="#000" d="M1.07-38.27h29.51"/><path stroke="#000" d="M37.96-38.27l-7-3.15 3.5 3.15h-3.5 3.5l-3.5 3.15 7-3.15h0z"/></g><g class="edge"><path fill="none" stroke="#000" d="M79.47-56.42c-2-9.39 2.34-17.85 13.03-17.85 7.85 0 12.27 4.56 13.28 10.7"/><path stroke="#000" d="M105.53-56.42l3.39-6.89-3.27 3.39.12-3.5h0l-.12 3.5-3.02-3.61 2.9 7.11h0z"/><text x="78" y="-90.67" font-family="Lato" font-size="12">!q | r</text><text x="86" y="-77.67" font-family="Lato" font-size="12" fill="#1f78b4">⓿</text></g><g class="node"><path fill="#ffffa0" stroke="#000" d="M379-56.27H257c-6 0-12 6-12 12v12c0 6 6 12 12 12h122c6 0 12-6 12-12v-12c0-6-6-12-12-12"/><text x="253" y="-35.17" font-family="Lato" font-size="12">GFc | (Fr &amp; G(q -&gt; Fr))</text></g><g class="edge"><path fill="none" stroke="#000" d="M133.61-56.31c10.05-3.7 20.95-7.05 31.39-8.96 27.11-4.95 34.74-4 62 0 10.59 1.55 21.67 4.09 32.28 6.99"/><path stroke="#000" d="M266.18-56.32l-5.87-4.94 2.51 3.98-3.37-.95h0l3.37.95-4.23 2.08 7.59-1.12h0z"/><text x="165" y="-71.67" font-family="Lato" font-size="12">!c &amp; q &amp; !r</text></g><g class="edge"><path fill="none" stroke="#000" d="M147.37-35.77c5.95.21 11.92.38 17.63.5 27.55.58 34.45.46 62 0 3.52-.06 7.13-.13 10.76-.21"/><path stroke="#000" d="M244.79-35.65l-7.07-2.98 3.58 3.06-3.5.09h0l3.5-.09-3.43 3.24 6.92-3.32h0z"/><text x="167" y="-51.67" font-family="Lato" font-size="12">c &amp; q &amp; !r</text><text x="189.5" y="-38.67" font-family="Lato" font-size="12" fill="#1f78b4">⓿</text></g><g class="edge"><path fill="none" stroke="#000" d="M278.45-20.21C262.84-13.83 244.42-7.45 227-4.27c-27.11 4.95-35.12 6.07-62 0-11.77-2.66-23.87-7.49-34.7-12.69"/><path stroke="#000" d="M123.74-20.23l4.86 5.94-1.73-4.38 3.13 1.56h0l-3.13-1.56 4.54-1.26-7.67-.3h0z"/><text x="193" y="-20.67" font-family="Lato" font-size="12">r</text><text x="189.5" y="-7.67" font-family="Lato" font-size="12" fill="#1f78b4">⓿</text></g><g class="edge"><path fill="none" stroke="#000" d="M306.96-56.42c-1.69-9.39 1.99-17.85 11.04-17.85 6.65 0 10.4 4.56 11.25 10.7"/><path stroke="#000" d="M329.04-56.42l3.35-6.9-3.25 3.4.11-3.5h0l-.11 3.5-3.04-3.59 2.94 7.09h0z"/><text x="299" y="-77.67" font-family="Lato" font-size="12">!c &amp; !r</text></g><g class="edge"><path fill="none" stroke="#000" d="M299.5-56.53c-9.59-17.14-3.42-35.74 18.5-35.74 19.18 0 26.3 14.24 21.35 29.28"/><path stroke="#000" d="M336.5-56.53l5.71-5.12-4.3 1.92 1.42-3.2h0l-1.42 3.2-1.46-4.47.05 7.67h0z"/><text x="301" y="-108.67" font-family="Lato" font-size="12">c &amp; !r</text><text x="311.5" y="-95.67" font-family="Lato" font-size="12" fill="#1f78b4">⓿</text></g></g></svg>