<svg width="847pt" height="664pt" viewBox="0 0 847.37 664.38" xmlns="http://www.w3.org/2000/svg" xmlns:xlink="http://www.w3.org/1999/xlink"><g class="graph" transform="translate(4 660.38)"><path fill="#fff" stroke="transparent" d="M-4 4v-664.38h847.37V4H-4z"/><g class="node"><a xlink:title="[0]"><path fill="#e9f4fb" stroke="#000" d="M419.69-619.38h-30c-6 0-12 6-12 12v12c0 6 6 12 12 12h30c6 0 12-6 12-12v-12c0-6-6-12-12-12"/><text text-anchor="middle" x="404.69" y="-597.68" font-family="Times,serif" font-size="14">0</text></a></g><g class="edge"><a xlink:title="initial state"><path fill="none" stroke="#000" d="M404.69-655.23v25.75"/><path stroke="#000" d="M408.19-629.41l-3.5 10-3.5-10h7z"/></a></g><g class="node"><a xlink:title="bdd(246)"><circle fill="#fff" stroke="#000" cx="404.69" cy="-514.89" r="32.49"/><text text-anchor="middle" x="404.69" y="-511.19" font-family="Times,serif" font-size="14">init0</text></a></g><g class="edge"><a xlink:title="[0]"><path fill="none" stroke="#000" d="M404.69-583.28v25.52"/><path stroke="#000" d="M408.19-557.66l-3.5 10-3.5-10h7z"/></a></g><g class="node"><a xlink:title="[1]"><path fill="#e9f4fb" stroke="#000" d="M524.69-619.38h-30c-6 0-12 6-12 12v12c0 6 6 12 12 12h30c6 0 12-6 12-12v-12c0-6-6-12-12-12"/><text text-anchor="middle" x="509.69" y="-597.68" font-family="Times,serif" font-size="14">1</text></a></g><g class="node"><a xlink:title="bdd(244)"><circle fill="#fff" stroke="#000" cx="509.69" cy="-320.7" r="24.9"/><text text-anchor="middle" x="509.69" y="-317" font-family="Times,serif" font-size="14">inc</text></a></g><g class="edge"><a xlink:title="[1]"><path fill="none" stroke="#000" d="M509.69-583.37v227.5"/><path stroke="#000" d="M513.19-355.75l-3.5 10-3.5-10h7z"/></a></g><g class="node"><a xlink:title="[2]"><path fill="#e9f4fb" stroke="#000" d="M233.69-619.38h-30c-6 0-12 6-12 12v12c0 6 6 12 12 12h30c6 0 12-6 12-12v-12c0-6-6-12-12-12"/><text text-anchor="middle" x="218.69" y="-597.68" font-family="Times,serif" font-size="14">2</text></a></g><g class="node"><a xlink:title="bdd(235)"><circle fill="#fff" stroke="#000" cx="218.69" cy="-320.7" r="24.9"/><text text-anchor="middle" x="218.69" y="-317" font-family="Times,serif" font-size="14">inc</text></a></g><g class="edge"><a xlink:title="[2]"><path fill="none" stroke="#000" d="M218.69-583.37v227.5"/><path stroke="#000" d="M222.19-355.75l-3.5 10-3.5-10h7z"/></a></g><g class="node"><a xlink:title="[3]"><path fill="#e9f4fb" stroke="#000" d="M308.69-619.38h-30c-6 0-12 6-12 12v12c0 6 6 12 12 12h30c6 0 12-6 12-12v-12c0-6-6-12-12-12"/><text text-anchor="middle" x="293.69" y="-597.68" font-family="Times,serif" font-size="14">3</text></a></g><g class="node"><a xlink:title="bdd(56)"><path fill="#fff" stroke="#000" d="M315.69-260l-39.55 18 39.55 18 39.54-18-39.54-18z"/><text text-anchor="middle" x="315.69" y="-238.3" font-family="Times,serif" font-size="14">ob0</text></a></g><g class="edge"><a xlink:title="[3]"><path fill="none" stroke="#000" d="M294.75-583.15c3.54 57.58 14.99 243.51 19.28 313.33"/><path stroke="#000" d="M317.54-269.85l-2.88 10.2-4.11-9.77 6.99-.43z"/></a></g><g class="node"><a xlink:title="bdd(236)"><circle fill="#fff" stroke="#000" cx="353.69" cy="-413.89" r="32.49"/><text text-anchor="middle" x="353.69" y="-410.19" font-family="Times,serif" font-size="14">init1</text></a></g><g class="edge"><a xlink:title="init0=0"><path fill="none" stroke="#000" stroke-dasharray="1,5" d="M390.21-485.78c-5.39 10.45-11.58 22.47-17.32 33.61"/><path stroke="#000" d="M375.89-450.35l-7.69 7.28 1.47-10.49 6.22 3.21z"/></a></g><g class="node"><a xlink:title="bdd(245)"><circle fill="#fff" stroke="#000" cx="438.69" cy="-413.89" r="32.49"/><text text-anchor="middle" x="438.69" y="-410.19" font-family="Times,serif" font-size="14">init1</text></a></g><g class="edge"><a xlink:title="init0=1"><path fill="none" stroke="#000" d="M414.98-483.92c3.19 9.31 6.77 19.71 10.15 29.56"/><path stroke="#000" d="M428.49-455.36l-.06 10.6-6.56-8.32 6.62-2.28z"/></a></g><g class="edge"><a xlink:title="init1=1"><path fill="none" stroke="#000" d="M327.01-394.88c-23.03 15.56-56.21 37.98-79.78 53.9"/><path stroke="#000" d="M248.96-337.93l-10.24 2.7 6.32-8.5 3.92 5.8z"/></a></g><g class="edge"><a xlink:title="init1=0"><path fill="none" stroke="#000" stroke-dasharray="1,5" d="M346.8-382.13c-7.27 32.51-18.6 83.18-25.4 113.56"/><path stroke="#000" d="M324.8-267.72l-5.6 8.99-1.23-10.52 6.83 1.53z"/></a></g><g class="edge"><a xlink:title="init1=1"><path fill="none" stroke="#000" d="M458.46-387.49c9.4 12.08 20.65 26.52 30.21 38.79"/><path stroke="#000" d="M491.59-350.64l3.38 10.04-8.91-5.74 5.53-4.3z"/></a></g><g class="node"><a xlink:title="bdd(240)"><circle fill="#fff" stroke="#000" cx="438.69" cy="-320.7" r="24.9"/><text text-anchor="middle" x="438.69" y="-317" font-family="Times,serif" font-size="14">inc</text></a></g><g class="edge"><a xlink:title="init1=0"><path fill="none" stroke="#000" stroke-dasharray="1,5" d="M438.69-381.25v25.53"/><path stroke="#000" d="M442.19-355.51l-3.5 10-3.5-10h7z"/></a></g><g class="node"><a xlink:title="bdd(64)"><path fill="#fff" stroke="#000" d="M509.69-260l-39.55 18 39.55 18 39.54-18-39.54-18z"/><text text-anchor="middle" x="509.69" y="-238.3" font-family="Times,serif" font-size="14">ob0</text></a></g><g class="edge"><a xlink:title="inc=0"><path fill="none" stroke="#000" stroke-dasharray="1,5" d="M509.69-295.85v25.75"/><path stroke="#000" d="M513.19-270.02l-3.5 10-3.5-10h7z"/></a></g><g class="node"><a xlink:title="bdd(243)"><path fill="#fff" stroke="#000" d="M703.69-260l-39.55 18 39.55 18 39.54-18-39.54-18z"/><text text-anchor="middle" x="703.69" y="-238.3" font-family="Times,serif" font-size="14">ob0</text></a></g><g class="edge"><a xlink:title="inc=1"><path fill="none" stroke="#000" d="M532.32-310.75c35.05 13.86 102.47 40.51 141.48 55.94"/><path stroke="#000" d="M675.52-257.9l8.02 6.93-10.59-.42 2.57-6.51z"/></a></g><g class="node"><a xlink:title="bdd(234)"><path fill="#fff" stroke="#000" d="M121.69-260l-39.55 18 39.55 18 39.54-18-39.54-18z"/><text text-anchor="middle" x="121.69" y="-238.3" font-family="Times,serif" font-size="14">ob0</text></a></g><g class="edge"><a xlink:title="inc=1"><path fill="none" stroke="#000" d="M199.52-304.54c-16.08 12.71-39.05 30.87-55.87 44.17"/><path stroke="#000" d="M145.5-257.37l-10.02 3.46 5.68-8.95 4.34 5.49z"/></a></g><g class="node"><a xlink:title="bdd(58)"><path fill="#fff" stroke="#000" d="M218.69-260l-39.55 18 39.55 18 39.54-18-39.54-18z"/><text text-anchor="middle" x="218.69" y="-238.3" font-family="Times,serif" font-size="14">ob0</text></a></g><g class="edge"><a xlink:title="inc=0"><path fill="none" stroke="#000" stroke-dasharray="1,5" d="M218.69-295.85v25.75"/><path stroke="#000" d="M222.19-270.02l-3.5 10-3.5-10h7z"/></a></g><g class="node"><a xlink:title="bdd(60)"><path fill="#fff" stroke="#000" d="M412.69-260l-39.55 18 39.55 18 39.54-18-39.54-18z"/><text text-anchor="middle" x="412.69" y="-238.3" font-family="Times,serif" font-size="14">ob0</text></a></g><g class="edge"><a xlink:title="inc=0"><path fill="none" stroke="#000" stroke-dasharray="1,5" d="M431.03-297.1c-3.13 9.22-6.75 19.9-9.95 29.33"/><path stroke="#000" d="M424.35-266.51l-6.52 8.35-.11-10.6 6.63 2.25z"/></a></g><g class="node"><a xlink:title="bdd(239)"><path fill="#fff" stroke="#000" d="M606.69-260l-39.55 18 39.55 18 39.54-18-39.54-18z"/><text text-anchor="middle" x="606.69" y="-238.3" font-family="Times,serif" font-size="14">ob0</text></a></g><g class="edge"><a xlink:title="inc=1"><path fill="none" stroke="#000" d="M458.64-305.96c5.41 3.46 11.35 7.02 17.05 9.96 18.17 9.39 68.25 29.04 100.96 41.59"/><path stroke="#000" d="M578.1-257.6l8.09 6.84-10.59-.3 2.5-6.54z"/></a></g><g class="node"><a xlink:title="bdd(55)"><path fill="#fff" stroke="#000" d="M383.69-188l-39.55 18 39.55 18 39.54-18-39.54-18z"/><text text-anchor="middle" x="383.69" y="-166.3" font-family="Times,serif" font-size="14">ob1</text></a></g><g class="edge"><a xlink:title="ob0=0"><path fill="none" stroke="#000" stroke-dasharray="1,5" d="M327.22-229.13c10.29 10.6 25.56 26.31 37.62 38.73"/><path stroke="#000" d="M367.41-192.78l4.46 9.61-9.48-4.73 5.02-4.88z"/></a></g><g class="node"><a xlink:title="bdd(0)"><path fill="#ffe6cc" stroke="#000" d="M447.69-40h-36v36h36v-36z"/><text text-anchor="middle" x="429.69" y="-18.3" font-family="Times,serif" font-size="14">0</text></a></g><g class="edge"><a xlink:title="ob0=1"><path fill="none" stroke="#d3d3d3" d="M317.09-224.6c2.04 18.36 6.84 48.68 17.6 72.6 18.01 40.06 49.94 79.78 71.77 104.34"/><path fill="#d3d3d3" stroke="#d3d3d3" d="M409.06-50.01l4.11 9.77-9.3-5.07 5.19-4.7z"/></a></g><g class="node"><a xlink:title="bdd(233)"><path fill="#fff" stroke="#000" d="M73.69-188l-39.55 18 39.55 18 39.54-18-39.54-18z"/><text text-anchor="middle" x="73.69" y="-166.3" font-family="Times,serif" font-size="14">ob1</text></a></g><g class="edge"><a xlink:title="ob0=0"><path fill="none" stroke="#000" stroke-dasharray="1,5" d="M112.66-227.83l-24.31 35.44"/><path stroke="#000" d="M91.22-190.38l-8.55 6.27 2.77-10.22 5.78 3.95z"/></a></g><g class="edge"><a xlink:title="ob0=1"><path fill="none" stroke="#d3d3d3" d="M124.63-224.93c6.84 32.58 26.96 106.59 74.06 144.93 15.83 12.89 144.97 39.86 202.97 51.48"/><path fill="#d3d3d3" stroke="#d3d3d3" d="M402.5-31.92l9.12 5.39-10.49 1.48 1.37-6.87z"/></a></g><g class="edge"><a xlink:title="ob0=1"><path fill="none" stroke="#000" d="M406.68-226.5c-3.78 9.11-8.73 21.07-13.07 31.55"/><path stroke="#000" d="M396.75-193.38l-7.06 7.89.59-10.57 6.47 2.68z"/></a></g><g class="edge"><a xlink:title="ob0=0"><path fill="none" stroke="#d3d3d3" stroke-dasharray="1,5" d="M419.56-227c4.74 10.46 10.62 25.26 13.13 39 8.73 47.86 4.55 104.82.76 137.76"/><path fill="#d3d3d3" stroke="#d3d3d3" d="M436.89-49.54l-4.7 9.5-2.25-10.36 6.95.86z"/></a></g><g class="node"><a xlink:title="bdd(238)"><path fill="#fff" stroke="#000" d="M606.69-188l-39.55 18 39.55 18 39.54-18-39.54-18z"/><text text-anchor="middle" x="606.69" y="-166.3" font-family="Times,serif" font-size="14">ob1</text></a></g><g class="edge"><a xlink:title="ob0=1"><path fill="none" stroke="#000" d="M606.69-223.7v25.59"/><path stroke="#000" d="M610.19-198.1l-3.5 10-3.5-10h7z"/></a></g><g class="edge"><a xlink:title="ob0=0"><path fill="none" stroke="#d3d3d3" stroke-dasharray="1,5" d="M595.09-229.06c-10.12 10.57-25.09 26.53-37.4 41.06-40.67 47.99-85.01 106.72-109.36 139.59"/><path fill="#d3d3d3" stroke="#d3d3d3" d="M451.05-46.21l-8.75 5.96 3.12-10.12 5.63 4.16z"/></a></g><g class="node"><a xlink:title="bdd(57)"><path fill="#fff" stroke="#000" d="M247.69-188l-39.55 18 39.55 18 39.54-18-39.54-18z"/><text text-anchor="middle" x="247.69" y="-166.3" font-family="Times,serif" font-size="14">ob1</text></a></g><g class="edge"><a xlink:title="ob0=1"><path fill="none" stroke="#000" d="M489.28-233.28c-8.48 3.08-18.45 6.54-27.59 9.28-62.15 18.65-135.83 35.84-178.52 45.33"/><path stroke="#000" d="M283.79-175.22l-10.52-1.27 9.01-5.57 1.51 6.84z"/></a></g><g class="edge"><a xlink:title="ob0=0"><path fill="none" stroke="#d3d3d3" stroke-dasharray="1,5" d="M504.32-226.35c-10.35 28.3-33.82 92.42-53.63 146.35-3.65 9.92-7.66 20.8-11.19 30.38"/><path fill="#d3d3d3" stroke="#d3d3d3" d="M442.78-48.38l-6.75 8.17.18-10.59 6.57 2.42z"/></a></g><g class="edge"><a xlink:title="ob0=0"><path fill="none" stroke="#000" stroke-dasharray="1,5" d="M224.69-226.5c3.78 9.11 8.73 21.07 13.08 31.55"/><path stroke="#000" d="M241.09-196.06l.59 10.57-7.06-7.89 6.47-2.68z"/></a></g><g class="edge"><a xlink:title="ob0=1"><path fill="none" stroke="#d3d3d3" d="M211.81-227c-4.74 10.46-10.62 25.26-13.12 39-8.99 49.25-5.78 75.15 32 108 25.7 22.35 122.48 42.86 170.96 52"/><path fill="#d3d3d3" stroke="#d3d3d3" d="M402.3-31.44l9.19 5.26-10.47 1.62 1.28-6.88z"/></a></g><g class="node"><a xlink:title="bdd(242)"><path fill="#fff" stroke="#000" d="M765.69-188l-39.55 18 39.55 18 39.54-18-39.54-18z"/><text text-anchor="middle" x="765.69" y="-166.3" font-family="Times,serif" font-size="14">ob1</text></a></g><g class="edge"><a xlink:title="ob0=1"><path fill="none" stroke="#000" d="M714.49-228.81c9.22 10.41 22.66 25.59 33.46 37.79"/><path stroke="#000" d="M750.58-193.33l4.01 9.81-9.25-5.17 5.24-4.64z"/></a></g><g class="edge"><a xlink:title="ob0=0"><path fill="none" stroke="#d3d3d3" stroke-dasharray="1,5" d="M706.51-224.81c4.6 32.16 9.77 104.45-27.82 144.81-29.88 32.08-162.11 48.6-220.79 54.47"/><path fill="#d3d3d3" stroke="#d3d3d3" d="M458.13-22.04l-10.29-2.52 9.62-4.45.67 6.97z"/></a></g><g class="node"><a xlink:title="bdd(14)"><path fill="#fff" stroke="#000" d="M290.69-116l-37.88 18 37.88 18 37.87-18-37.87-18z"/><text text-anchor="middle" x="290.69" y="-94.3" font-family="Times,serif" font-size="14">oc1</text></a></g><g class="edge"><a xlink:title="ob1=0"><path fill="none" stroke="#000" stroke-dasharray="1,5" d="M369.56-158.37c-15.11 11.37-39.27 29.56-56.87 42.81"/><path stroke="#000" d="M314.73-112.72l-10.09 3.22 5.88-8.81 4.21 5.59z"/></a></g><g class="edge"><a xlink:title="ob1=1"><path fill="none" stroke="#d3d3d3" d="M388.43-153.93c7.76 24.62 23.24 73.75 32.87 104.33"/><path fill="#d3d3d3" stroke="#d3d3d3" d="M424.66-50.6l-.33 10.59-6.35-8.48 6.68-2.11z"/></a></g><g class="node"><a xlink:title="bdd(241)"><path fill="#fff" stroke="#000" d="M801.69-116l-37.88 18 37.88 18 37.87-18-37.87-18z"/><text text-anchor="middle" x="801.69" y="-94.3" font-family="Times,serif" font-size="14">oc1</text></a></g><g class="edge"><a xlink:title="ob1=1"><path fill="none" stroke="#000" d="M772.8-155.17c4.88 9.49 11.47 22.31 17.13 33.31"/><path stroke="#000" d="M793.13-123.29l1.46 10.49-7.69-7.29 6.23-3.2z"/></a></g><g class="edge"><a xlink:title="ob1=0"><path fill="none" stroke="#d3d3d3" stroke-dasharray="1,5" d="M760.91-154.06c-7.26 20.16-23.05 55.67-49.22 74.06-40.96 28.77-190.61 47.43-253.68 54.17"/><path fill="#d3d3d3" stroke="#d3d3d3" d="M458.28-22.34l-10.31-2.44 9.59-4.52.72 6.96z"/></a></g><g class="node"><a xlink:title="bdd(232)"><path fill="#fff" stroke="#000" d="M37.69-116L-.19-98l37.88 18 37.87-18-37.87-18z"/><text text-anchor="middle" x="37.69" y="-94.3" font-family="Times,serif" font-size="14">oc1</text></a></g><g class="edge"><a xlink:title="ob1=1"><path fill="none" stroke="#000" d="M66.57-155.17c-4.88 9.49-11.47 22.31-17.13 33.31"/><path stroke="#000" d="M52.47-120.09l-7.69 7.29 1.46-10.49 6.23 3.2z"/></a></g><g class="edge"><a xlink:title="ob1=0"><path fill="none" stroke="#d3d3d3" stroke-dasharray="1,5" d="M78.42-154c7.21 20.23 22.94 55.82 49.27 74 72.15 49.84 107.84 19.63 194 36 27.09 5.15 57.97 11.17 79.75 15.44"/><path fill="#d3d3d3" stroke="#d3d3d3" d="M402.21-31.98l9.14 5.37-10.49 1.5 1.35-6.87z"/></a></g><g class="edge"><a xlink:title="ob1=1"><path fill="none" stroke="#000" d="M255.98-155.5c5.94 9.68 14.1 22.95 21 34.2"/><path stroke="#000" d="M280.17-122.81l2.25 10.35-8.22-6.68 5.97-3.67z"/></a></g><g class="edge"><a xlink:title="ob1=0"><path fill="none" stroke="#d3d3d3" stroke-dasharray="1,5" d="M241.9-154.44c-6.53 19.08-14.31 52.68 1.79 74.44 18.9 25.56 110.59 44.35 157.79 52.51"/><path fill="#d3d3d3" stroke="#d3d3d3" d="M402.09-30.94l9.28 5.11-10.44 1.8 1.16-6.91z"/></a></g><g class="node"><a xlink:title="bdd(237)"><path fill="#fff" stroke="#000" d="M631.69-116l-37.88 18 37.88 18 37.87-18-37.87-18z"/><text text-anchor="middle" x="631.69" y="-94.3" font-family="Times,serif" font-size="14">oc1</text></a></g><g class="edge"><a xlink:title="ob1=0"><path fill="none" stroke="#000" stroke-dasharray="1,5" d="M611.99-154.15c3.18 8.9 7.31 20.46 10.96 30.69"/><path stroke="#000" d="M626.32-124.42l.07 10.6-6.66-8.24 6.59-2.36z"/></a></g><g class="edge"><a xlink:title="ob1=1"><path fill="none" stroke="#d3d3d3" d="M599.3-155.08c-10.63 18.98-31.83 53.12-57.61 75.08-25.3 21.54-60.12 37.62-84.19 47.11"/><path fill="#d3d3d3" stroke="#d3d3d3" d="M458.49-29.52l-10.59.3 8.1-6.84 2.49 6.54z"/></a></g><g class="edge"><a xlink:title="oc1=1"><path fill="none" stroke="#d3d3d3" d="M307.73-87.93c23.71 12.63 66.88 35.61 94.99 50.57"/><path fill="#d3d3d3" stroke="#d3d3d3" d="M404.44-40.41l7.18 7.79-10.47-1.61 3.29-6.18z"/></a></g><g class="node"><a xlink:title="bdd(1)"><path fill="#ffe6cc" stroke="#000" d="M308.69-40h-36v36h36v-36z"/><path fill="none" stroke="#000" d="M312.69-44h-44V0h44v-44z"/><text text-anchor="middle" x="290.69" y="-18.3" font-family="Times,serif" font-size="14">1</text></a></g><g class="edge"><a xlink:title="oc1=0"><path fill="none" stroke="#000" stroke-dasharray="1,5" d="M290.69-79.84v25.79"/><path stroke="#000" d="M294.19-54.03l-3.5 10-3.5-10h7z"/></a></g><g class="edge"><a xlink:title="oc1=0"><path fill="none" stroke="#d3d3d3" stroke-dasharray="1,5" d="M781.13-89.55c-9.48 3.25-20.94 6.91-31.44 9.55C643.48-53.32 514.4-34.33 458.17-26.71"/><path fill="#d3d3d3" stroke="#d3d3d3" d="M458.29-23.2l-10.37-2.14 9.44-4.79.93 6.93z"/></a></g><g class="node"><a xlink:title="bdd(79)=term(6)=[3]"><path fill="#ffe5f1" stroke="#000" d="M816.69-40h-30c-6 0-12 6-12 12v12c0 6 6 12 12 12h30c6 0 12-6 12-12v-12c0-6-6-12-12-12"/><text text-anchor="middle" x="801.69" y="-18.3" font-family="Times,serif" font-size="14">3</text></a></g><g class="edge"><a xlink:title="oc1=1"><path fill="none" stroke="#000" d="M801.69-79.84v29.57"/><path stroke="#000" d="M805.19-50.07l-3.5 10-3.5-10h7z"/></a></g><g class="edge"><a xlink:title="oc1=1"><path fill="none" stroke="#d3d3d3" d="M58.21-89.44c9.48 3.27 20.95 6.92 31.48 9.44 101.47 24.29 129.21 18.04 232 36 27.16 4.75 58.04 10.82 79.8 15.21"/><path fill="#d3d3d3" stroke="#d3d3d3" d="M402.28-32.2l9.1 5.42-10.5 1.44 1.4-6.86z"/></a></g><g class="node"><a xlink:title="bdd(231)=term(2)=[1]"><path fill="#ffe5f1" stroke="#000" d="M52.69-40h-30c-6 0-12 6-12 12v12c0 6 6 12 12 12h30c6 0 12-6 12-12v-12c0-6-6-12-12-12"/><text text-anchor="middle" x="37.69" y="-18.3" font-family="Times,serif" font-size="14">1</text></a></g><g class="edge"><a xlink:title="oc1=0"><path fill="none" stroke="#000" stroke-dasharray="1,5" d="M37.69-79.84v29.57"/><path stroke="#000" d="M41.19-50.07l-3.5 10-3.5-10h7z"/></a></g><g class="edge"><a xlink:title="oc1=0"><path fill="none" stroke="#d3d3d3" stroke-dasharray="1,5" d="M611.2-89.5c-36.5 13.38-112.84 41.34-153.93 56.39"/><path fill="#d3d3d3" stroke="#d3d3d3" d="M458.46-29.81l-10.59.15 8.18-6.73 2.41 6.58z"/></a></g><g class="node"><a xlink:title="bdd(76)=term(4)=[2]"><path fill="#ffe5f1" stroke="#000" d="M646.69-40h-30c-6 0-12 6-12 12v12c0 6 6 12 12 12h30c6 0 12-6 12-12v-12c0-6-6-12-12-12"/><text text-anchor="middle" x="631.69" y="-18.3" font-family="Times,serif" font-size="14">2</text></a></g><g class="edge"><a xlink:title="oc1=1"><path fill="none" stroke="#000" d="M631.69-79.84v29.57"/><path stroke="#000" d="M635.19-50.07l-3.5 10-3.5-10h7z"/></a></g></g></svg>