<svg width="322pt" height="449pt" viewBox="0 0 322 449" xmlns="http://www.w3.org/2000/svg" xmlns:xlink="http://www.w3.org/1999/xlink"><g class="graph" transform="translate(4 445)"><path fill="#fff" stroke="transparent" d="M-4 4v-449h322V4H-4z"/><g class="node"><a xlink:title="[0]"><path fill="#e9f4fb" stroke="#000" d="M73-404H43c-6 0-12 6-12 12v12c0 6 6 12 12 12h30c6 0 12-6 12-12v-12c0-6-6-12-12-12"/><text text-anchor="middle" x="58" y="-382.3" font-family="Times,serif" font-size="14">0</text></a></g><g class="edge"><a xlink:title="initial state"><path fill="none" stroke="#000" d="M58-439.85v25.75"/><path stroke="#000" d="M61.5-414.02l-3.5 10-3.5-10h7z"/></a></g><g class="node"><a xlink:title="bdd(46)"><circle fill="#fff" stroke="#000" cx="67" cy="-314" r="18"/><text text-anchor="middle" x="67" y="-310.3" font-family="Times,serif" font-size="14">a</text></a></g><g class="edge"><a xlink:title="[0]"><path fill="none" stroke="#000" d="M60.22-367.7c1 7.72 2.19 16.99 3.29 25.59"/><path stroke="#000" d="M67-342.47l-2.2 10.37-4.75-9.48 6.95-.89z"/></a></g><g class="node"><a xlink:title="[1]"><path fill="#e9f4fb" stroke="#000" d="M217-404h-30c-6 0-12 6-12 12v12c0 6 6 12 12 12h30c6 0 12-6 12-12v-12c0-6-6-12-12-12"/><text text-anchor="middle" x="202" y="-382.3" font-family="Times,serif" font-size="14">1</text></a></g><g class="node"><a xlink:title="bdd(13)"><circle fill="#fff" stroke="#000" cx="193" cy="-170" r="18"/><text text-anchor="middle" x="193" y="-166.3" font-family="Times,serif" font-size="14">c</text></a></g><g class="edge"><a xlink:title="[1]"><path fill="none" stroke="#000" d="M201.28-367.85c-1.56 37.02-5.24 124.67-7.13 169.46"/><path stroke="#000" d="M197.64-198.08l-3.92 9.85-3.07-10.14 6.99.29z"/></a></g><g class="node"><a xlink:title="[2]"><path fill="#e9f4fb" stroke="#000" d="M145-404h-30c-6 0-12 6-12 12v12c0 6 6 12 12 12h30c6 0 12-6 12-12v-12c0-6-6-12-12-12"/><text text-anchor="middle" x="130" y="-382.3" font-family="Times,serif" font-size="14">2</text></a></g><g class="node"><a xlink:title="bdd(17)"><circle fill="#fff" stroke="#000" cx="130" cy="-242" r="18"/><text text-anchor="middle" x="130" y="-238.3" font-family="Times,serif" font-size="14">b</text></a></g><g class="edge"><a xlink:title="[2]"><path fill="none" stroke="#000" d="M130-367.87v97.48"/><path stroke="#000" d="M133.5-270.19l-3.5 10-3.5-10h7z"/></a></g><g class="edge"><a xlink:title="a=0"><path fill="none" stroke="#000" stroke-dasharray="1,5" d="M78.56-300.16c9.12 10.13 22.03 24.48 32.63 36.26"/><path stroke="#000" d="M114-266.01l4.09 9.78-9.29-5.09 5.2-4.69z"/></a></g><g class="node"><a xlink:title="bdd(20)"><circle fill="#fff" stroke="#000" cx="67" cy="-98" r="18"/><text text-anchor="middle" x="67" y="-94.3" font-family="Times,serif" font-size="14">d</text></a></g><g class="edge"><a xlink:title="a=1"><path fill="none" stroke="#000" d="M67-295.85v169.46"/><path stroke="#000" d="M70.5-126.23l-3.5 10-3.5-10h7z"/></a></g><g class="edge"><a xlink:title="b=0"><path fill="none" stroke="#000" stroke-dasharray="1,5" d="M141.56-228.16c9.12 10.13 22.03 24.48 32.63 36.26"/><path stroke="#000" d="M177-194.01l4.09 9.78-9.29-5.09 5.2-4.69z"/></a></g><g class="node"><a xlink:title="bdd(16)"><circle fill="#fff" stroke="#000" cx="130" cy="-98" r="18"/><text text-anchor="middle" x="130" y="-94.3" font-family="Times,serif" font-size="14">d</text></a></g><g class="edge"><a xlink:title="b=1"><path fill="none" stroke="#000" d="M130-223.87v97.48"/><path stroke="#000" d="M133.5-126.19l-3.5 10-3.5-10h7z"/></a></g><g class="node"><a xlink:title="bdd(8)"><circle fill="#fff" stroke="#000" cx="243" cy="-98" r="18"/><text text-anchor="middle" x="243" y="-94.3" font-family="Times,serif" font-size="14">d</text></a></g><g class="edge"><a xlink:title="c=0"><path fill="none" stroke="#000" stroke-dasharray="1,5" d="M203.12-154.83c6.84 9.58 16.03 22.44 23.86 33.4"/><path stroke="#000" d="M229.93-123.32l2.97 10.18-8.66-6.11 5.69-4.07z"/></a></g><g class="node"><a xlink:title="bdd(12)"><circle fill="#fff" stroke="#000" cx="189" cy="-98" r="18"/><text text-anchor="middle" x="189" y="-94.3" font-family="Times,serif" font-size="14">d</text></a></g><g class="edge"><a xlink:title="c=1"><path fill="none" stroke="#000" d="M192.01-151.7l-1.46 25.59"/><path stroke="#000" d="M194.04-125.89l-4.06 9.79-2.93-10.19 6.99.4z"/></a></g><g class="node"><a xlink:title="bdd(1)"><path fill="#ffe6cc" stroke="#000" d="M184-40h-36v36h36v-36z"/><path fill="none" stroke="#000" d="M188-44h-44V0h44v-44z"/><text text-anchor="middle" x="166" y="-18.3" font-family="Times,serif" font-size="14">1</text></a></g><g class="edge"><a xlink:title="d=1"><path fill="none" stroke="#000" d="M81.18-86.4c14.19 10.61 36.46 27.25 54.61 40.82"/><path stroke="#000" d="M137.89-48.38l5.91 8.79-10.1-3.18 4.19-5.61z"/></a></g><g class="node"><a xlink:title="bdd(18)=term(0)=[0]"><path fill="#ffe5f1" stroke="#000" d="M42-40H12C6-40 0-34 0-28v12C0-10 6-4 12-4h30c6 0 12-6 12-12v-12c0-6-6-12-12-12"/><text text-anchor="middle" x="27" y="-18.3" font-family="Times,serif" font-size="14">0</text></a></g><g class="edge"><a xlink:title="d=0"><path fill="none" stroke="#000" stroke-dasharray="1,5" d="M58.71-81.67c-5.06 9.37-11.67 21.59-17.54 32.45"/><path stroke="#000" d="M44.09-47.26l-7.83 7.14 1.67-10.47 6.16 3.33z"/></a></g><g class="edge"><a xlink:title="d=1"><path fill="none" stroke="#000" d="M230.29-84.78c-9.49 9.11-22.83 21.93-34.9 33.53"/><path stroke="#000" d="M197.72-48.63l-9.64 4.41 4.79-9.46 4.85 5.05z"/></a></g><g class="node"><a xlink:title="bdd(0)"><path fill="#ffe6cc" stroke="#000" d="M314-40h-36v36h36v-36z"/><text text-anchor="middle" x="296" y="-18.3" font-family="Times,serif" font-size="14">0</text></a></g><g class="edge"><a xlink:title="d=0"><path fill="none" stroke="#000" stroke-dasharray="1,5" d="M253.22-82.73c6.95 9.7 16.34 22.82 24.56 34.28"/><path stroke="#000" d="M280.79-50.25l2.98 10.17-8.67-6.09 5.69-4.08z"/></a></g><g class="edge"><a xlink:title="d=1"><path fill="none" stroke="#000" d="M183.9-80.58c-2.45 7.88-5.47 17.59-8.32 26.77"/><path stroke="#000" d="M178.89-52.67l-6.31 8.51-.38-10.59 6.69 2.08z"/></a></g><g class="node"><a xlink:title="bdd(10)=term(2)=[1]"><path fill="#ffe5f1" stroke="#000" d="M248-40h-30c-6 0-12 6-12 12v12c0 6 6 12 12 12h30c6 0 12-6 12-12v-12c0-6-6-12-12-12"/><text text-anchor="middle" x="233" y="-18.3" font-family="Times,serif" font-size="14">1</text></a></g><g class="edge"><a xlink:title="d=0"><path fill="none" stroke="#000" stroke-dasharray="1,5" d="M197.9-82.02c5.65 9.5 13.12 22.05 19.71 33.13"/><path stroke="#000" d="M220.78-50.41l2.1 10.39-8.12-6.81 6.02-3.58z"/></a></g><g class="edge"><a xlink:title="d=1"><path fill="none" stroke="#000" d="M137.63-81.31c4.01 8.23 9.05 18.6 13.77 28.3"/><path stroke="#000" d="M154.55-54.53l1.23 10.52-7.52-7.46 6.29-3.06z"/></a></g><g class="node"><a xlink:title="bdd(14)=term(4)=[2]"><path fill="#ffe5f1" stroke="#000" d="M114-40H84c-6 0-12 6-12 12v12c0 6 6 12 12 12h30c6 0 12-6 12-12v-12c0-6-6-12-12-12"/><text text-anchor="middle" x="99" y="-18.3" font-family="Times,serif" font-size="14">2</text></a></g><g class="edge"><a xlink:title="d=0"><path fill="none" stroke="#000" stroke-dasharray="1,5" d="M123.27-80.94c-3.87 9.24-8.83 21.08-13.26 31.65"/><path stroke="#000" d="M113.24-47.93l-7.1 7.87.64-10.57 6.46 2.7z"/></a></g></g></svg>