<svg width="592" height="449pt" viewBox="0 0 444 449" xmlns="http://www.w3.org/2000/svg" xmlns:xlink="http://www.w3.org/1999/xlink"><g class="graph" transform="translate(4 445)"><path fill="#fff" stroke="transparent" d="M-4 4v-449h444V4H-4z"/><g class="node"><a xlink:title="[0]"><path fill="#e9f4fb" stroke="#000" d="M139-404H29c-6 0-12 6-12 12v12c0 6 6 12 12 12h110c6 0 12-6 12-12v-12c0-6-6-12-12-12"/><text text-anchor="middle" x="84" y="-382.3" font-family="Times,serif" font-size="14">a U (b U (c U d))</text></a></g><g class="edge"><a xlink:title="initial state"><path fill="none" stroke="#000" d="M84-439.85v25.75"/><path stroke="#000" d="M87.5-414.02l-3.5 10-3.5-10h7z"/></a></g><g class="node"><a xlink:title="bdd(46)"><circle fill="#fff" stroke="#000" cx="124" cy="-314" r="18"/><text text-anchor="middle" x="124" y="-310.3" font-family="Times,serif" font-size="14">a</text></a></g><g class="edge"><a xlink:title="[0]"><path fill="none" stroke="#000" d="M93.89-367.7c4.93 8.63 10.96 19.2 16.34 28.6"/><path stroke="#000" d="M113.39-340.62l1.92 10.42-8-6.95 6.08-3.47z"/></a></g><g class="node"><a xlink:title="[1]"><path fill="#e9f4fb" stroke="#000" d="M325-404h-30c-6 0-12 6-12 12v12c0 6 6 12 12 12h30c6 0 12-6 12-12v-12c0-6-6-12-12-12"/><text text-anchor="middle" x="310" y="-382.3" font-family="Times,serif" font-size="14">c U d</text></a></g><g class="node"><a xlink:title="bdd(13)"><circle fill="#fff" stroke="#000" cx="291" cy="-170" r="18"/><text text-anchor="middle" x="291" y="-166.3" font-family="Times,serif" font-size="14">c</text></a></g><g class="edge"><a xlink:title="[1]"><path fill="none" stroke="#000" d="M308.48-367.85c-3.29 37.02-11.07 124.67-15.05 169.46"/><path stroke="#000" d="M296.9-197.88l-4.37 9.65-2.6-10.27 6.97.62z"/></a></g><g class="node"><a xlink:title="[2]"><path fill="#e9f4fb" stroke="#000" d="M252.5-404h-71c-6 0-12 6-12 12v12c0 6 6 12 12 12h71c6 0 12-6 12-12v-12c0-6-6-12-12-12"/><text text-anchor="middle" x="217" y="-382.3" font-family="Times,serif" font-size="14">b U (c U d)</text></a></g><g class="node"><a xlink:title="bdd(17)"><circle fill="#fff" stroke="#000" cx="217" cy="-242" r="18"/><text text-anchor="middle" x="217" y="-238.3" font-family="Times,serif" font-size="14">b</text></a></g><g class="edge"><a xlink:title="[2]"><path fill="none" stroke="#000" d="M217-367.87v97.48"/><path stroke="#000" d="M220.5-270.19l-3.5 10-3.5-10h7z"/></a></g><g class="edge"><a xlink:title="a=0"><path fill="none" stroke="#000" stroke-dasharray="1,5" d="M138.12-302.37C153.23-291 177.4-272.81 195-259.56"/><path stroke="#000" d="M197.16-262.31l5.89 8.81-10.1-3.22 4.21-5.59z"/></a></g><g class="node"><a xlink:title="bdd(20)"><circle fill="#fff" stroke="#000" cx="124" cy="-98" r="18"/><text text-anchor="middle" x="124" y="-94.3" font-family="Times,serif" font-size="14">d</text></a></g><g class="edge"><a xlink:title="a=1"><path fill="none" stroke="#000" d="M124-295.85v169.46"/><path stroke="#000" d="M127.5-126.23l-3.5 10-3.5-10h7z"/></a></g><g class="edge"><a xlink:title="b=0"><path fill="none" stroke="#000" stroke-dasharray="1,5" d="M229.89-228.81c11.25 10.64 27.76 26.26 40.79 38.58"/><path stroke="#000" d="M273.4-192.47l4.86 9.42-9.67-4.33 4.81-5.09z"/></a></g><g class="node"><a xlink:title="bdd(16)"><circle fill="#fff" stroke="#000" cx="217" cy="-98" r="18"/><text text-anchor="middle" x="217" y="-94.3" font-family="Times,serif" font-size="14">d</text></a></g><g class="edge"><a xlink:title="b=1"><path fill="none" stroke="#000" d="M217-223.87v97.48"/><path stroke="#000" d="M220.5-126.19l-3.5 10-3.5-10h7z"/></a></g><g class="node"><a xlink:title="bdd(8)"><circle fill="#fff" stroke="#000" cx="343" cy="-98" r="18"/><text text-anchor="middle" x="343" y="-94.3" font-family="Times,serif" font-size="14">d</text></a></g><g class="edge"><a xlink:title="c=0"><path fill="none" stroke="#000" stroke-dasharray="1,5" d="M301.27-155.17c7.27 9.78 17.16 23.09 25.48 34.3"/><path stroke="#000" d="M329.59-122.92l3.16 10.12-8.78-5.94 5.62-4.18z"/></a></g><g class="node"><a xlink:title="bdd(12)"><circle fill="#fff" stroke="#000" cx="289" cy="-98" r="18"/><text text-anchor="middle" x="289" y="-94.3" font-family="Times,serif" font-size="14">d</text></a></g><g class="edge"><a xlink:title="c=1"><path fill="none" stroke="#000" d="M290.51-151.7c-.22 7.72-.49 16.99-.74 25.59"/><path stroke="#000" d="M293.27-126l-3.78 9.9-3.21-10.1 6.99.2z"/></a></g><g class="node"><a xlink:title="bdd(1)"><path fill="#ffe6cc" stroke="#000" d="M306-40h-36v36h36v-36z"/><path fill="none" stroke="#000" d="M310-44h-44V0h44v-44z"/><text text-anchor="middle" x="288" y="-18.3" font-family="Times,serif" font-size="14">1</text></a></g><g class="edge"><a xlink:title="d=1"><path fill="none" stroke="#000" d="M140.89-91.58C166.67-83.03 217.03-65.18 257-44c.09.05.18.1.27.14"/><path stroke="#000" d="M258.79-47.02l6.87 8.07-10.4-2.02 3.53-6.05z"/></a></g><g class="node"><a xlink:title="bdd(18)=term(0)=[0]"><path fill="#ffe5f1" stroke="#000" d="M122-40H12C6-40 0-34 0-28v12C0-10 6-4 12-4h110c6 0 12-6 12-12v-12c0-6-6-12-12-12"/><text text-anchor="middle" x="67" y="-18.3" font-family="Times,serif" font-size="14">a U (b U (c U d))</text></a></g><g class="edge"><a xlink:title="d=0"><path fill="none" stroke="#000" stroke-dasharray="1,5" d="M113.28-83.08c-7.53 9.77-17.81 23.11-26.77 34.75"/><path stroke="#000" d="M89.16-46.03l-8.88 5.79 3.33-10.06 5.55 4.27z"/></a></g><g class="edge"><a xlink:title="d=1"><path fill="none" stroke="#000" d="M332.65-83.08c-6.43 8.65-14.95 20.12-22.82 30.71"/><path stroke="#000" d="M312.49-50.08l-8.78 5.94 3.16-10.11 5.62 4.17z"/></a></g><g class="node"><a xlink:title="bdd(0)"><path fill="#ffe6cc" stroke="#000" d="M436-40h-36v36h36v-36z"/><text text-anchor="middle" x="418" y="-18.3" font-family="Times,serif" font-size="14">0</text></a></g><g class="edge"><a xlink:title="d=0"><path fill="none" stroke="#000" stroke-dasharray="1,5" d="M355.38-84.78c10.3 10.16 25.27 24.93 37.99 37.48"/><path stroke="#000" d="M395.89-49.74l4.66 9.52-9.58-4.53 4.92-4.99z"/></a></g><g class="edge"><a xlink:title="d=1"><path fill="none" stroke="#000" d="M288.77-79.84c-.11 7.68-.23 16.96-.35 25.79"/><path stroke="#000" d="M291.92-53.98l-3.64 9.95-3.36-10.05 7 .1z"/></a></g><g class="node"><a xlink:title="bdd(10)=term(2)=[1]"><path fill="#ffe5f1" stroke="#000" d="M370-40h-30c-6 0-12 6-12 12v12c0 6 6 12 12 12h30c6 0 12-6 12-12v-12c0-6-6-12-12-12"/><text text-anchor="middle" x="355" y="-18.3" font-family="Times,serif" font-size="14">c U d</text></a></g><g class="edge"><a xlink:title="d=0"><path fill="none" stroke="#000" stroke-dasharray="1,5" d="M300.5-84.11c8.9 9.99 21.51 24.12 32.36 36.29"/><path stroke="#000" d="M335.63-49.97l4.05 9.79-9.27-5.13 5.22-4.66z"/></a></g><g class="edge"><a xlink:title="d=1"><path fill="none" stroke="#000" d="M229.04-84.45c8.7 9.07 20.8 21.68 31.77 33.12"/><path stroke="#000" d="M263.42-53.67l4.4 9.63-9.45-4.79 5.05-4.84z"/></a></g><g class="node"><a xlink:title="bdd(14)=term(4)=[2]"><path fill="#ffe5f1" stroke="#000" d="M235.5-40h-71c-6 0-12 6-12 12v12c0 6 6 12 12 12h71c6 0 12-6 12-12v-12c0-6-6-12-12-12"/><text text-anchor="middle" x="200" y="-18.3" font-family="Times,serif" font-size="14">b U (c U d)</text></a></g><g class="edge"><a xlink:title="d=0"><path fill="none" stroke="#000" stroke-dasharray="1,5" d="M213.14-80.21c-2.03 8.86-4.58 19.96-6.89 30.01"/><path stroke="#000" d="M209.61-49.2l-5.65 8.96-1.17-10.53 6.82 1.57z"/></a></g></g></svg>