<svg width="2098pt" height="664pt" viewBox="0 0 2098.37 664.38" xmlns="http://www.w3.org/2000/svg" xmlns:xlink="http://www.w3.org/1999/xlink"><g class="graph" transform="translate(4 660.38)"><path fill="#fff" stroke="transparent" d="M-4 4v-664.38h2098.37V4H-4z"/><g class="node"><a xlink:title="[0]"><path fill="#e9f4fb" stroke="#000" d="M764.69-619.38h-30c-6 0-12 6-12 12v12c0 6 6 12 12 12h30c6 0 12-6 12-12v-12c0-6-6-12-12-12"/><text text-anchor="middle" x="749.69" y="-597.68" font-family="Times,serif" font-size="14">0</text></a></g><g class="edge"><a xlink:title="initial state"><path fill="none" stroke="#000" d="M749.69-655.23v25.75"/><path stroke="#000" d="M753.19-629.41l-3.5 10-3.5-10h7z"/></a></g><g class="node"><a xlink:title="bdd(249)"><circle fill="#fff" stroke="#000" cx="749.69" cy="-514.89" r="32.49"/><text text-anchor="middle" x="749.69" y="-511.19" font-family="Times,serif" font-size="14">init0</text></a></g><g class="edge"><a xlink:title="[0]"><path fill="none" stroke="#000" d="M749.69-583.28v25.52"/><path stroke="#000" d="M753.19-557.66l-3.5 10-3.5-10h7z"/></a></g><g class="node"><a xlink:title="[1]"><path fill="#e9f4fb" stroke="#000" d="M291.69-619.38h-30c-6 0-12 6-12 12v12c0 6 6 12 12 12h30c6 0 12-6 12-12v-12c0-6-6-12-12-12"/><text text-anchor="middle" x="276.69" y="-597.68" font-family="Times,serif" font-size="14">1</text></a></g><g class="node"><a xlink:title="bdd(223)"><circle fill="#fff" stroke="#000" cx="276.69" cy="-320.7" r="24.9"/><text text-anchor="middle" x="276.69" y="-317" font-family="Times,serif" font-size="14">inc</text></a></g><g class="edge"><a xlink:title="[1]"><path fill="none" stroke="#000" d="M276.69-583.37v227.5"/><path stroke="#000" d="M280.19-355.75l-3.5 10-3.5-10h7z"/></a></g><g class="node"><a xlink:title="[2]"><path fill="#e9f4fb" stroke="#000" d="M573.69-619.38h-30c-6 0-12 6-12 12v12c0 6 6 12 12 12h30c6 0 12-6 12-12v-12c0-6-6-12-12-12"/><text text-anchor="middle" x="558.69" y="-597.68" font-family="Times,serif" font-size="14">2</text></a></g><g class="node"><a xlink:title="bdd(253)"><circle fill="#fff" stroke="#000" cx="558.69" cy="-320.7" r="24.9"/><text text-anchor="middle" x="558.69" y="-317" font-family="Times,serif" font-size="14">inc</text></a></g><g class="edge"><a xlink:title="[2]"><path fill="none" stroke="#000" d="M558.69-583.37v227.5"/><path stroke="#000" d="M562.19-355.75l-3.5 10-3.5-10h7z"/></a></g><g class="node"><a xlink:title="[3]"><path fill="#e9f4fb" stroke="#000" d="M1650.69-619.38h-30c-6 0-12 6-12 12v12c0 6 6 12 12 12h30c6 0 12-6 12-12v-12c0-6-6-12-12-12"/><text text-anchor="middle" x="1635.69" y="-597.68" font-family="Times,serif" font-size="14">3</text></a></g><g class="node"><a xlink:title="bdd(256)"><circle fill="#fff" stroke="#000" cx="1635.69" cy="-320.7" r="24.9"/><text text-anchor="middle" x="1635.69" y="-317" font-family="Times,serif" font-size="14">inc</text></a></g><g class="edge"><a xlink:title="[3]"><path fill="none" stroke="#000" d="M1635.69-583.37v227.5"/><path stroke="#000" d="M1639.19-355.75l-3.5 10-3.5-10h7z"/></a></g><g class="node"><a xlink:title="[4]"><path fill="#e9f4fb" stroke="#000" d="M1278.69-619.38h-30c-6 0-12 6-12 12v12c0 6 6 12 12 12h30c6 0 12-6 12-12v-12c0-6-6-12-12-12"/><text text-anchor="middle" x="1263.69" y="-597.68" font-family="Times,serif" font-size="14">4</text></a></g><g class="node"><a xlink:title="bdd(247)"><circle fill="#fff" stroke="#000" cx="1263.69" cy="-320.7" r="24.9"/><text text-anchor="middle" x="1263.69" y="-317" font-family="Times,serif" font-size="14">inc</text></a></g><g class="edge"><a xlink:title="[4]"><path fill="none" stroke="#000" d="M1263.69-583.37v227.5"/><path stroke="#000" d="M1267.19-355.75l-3.5 10-3.5-10h7z"/></a></g><g class="node"><a xlink:title="[5]"><path fill="#e9f4fb" stroke="#000" d="M474.69-619.38h-30c-6 0-12 6-12 12v12c0 6 6 12 12 12h30c6 0 12-6 12-12v-12c0-6-6-12-12-12"/><text text-anchor="middle" x="459.69" y="-597.68" font-family="Times,serif" font-size="14">5</text></a></g><g class="node"><a xlink:title="bdd(257)"><circle fill="#fff" stroke="#000" cx="459.69" cy="-320.7" r="24.9"/><text text-anchor="middle" x="459.69" y="-317" font-family="Times,serif" font-size="14">inc</text></a></g><g class="edge"><a xlink:title="[5]"><path fill="none" stroke="#000" d="M459.69-583.37v227.5"/><path stroke="#000" d="M463.19-355.75l-3.5 10-3.5-10h7z"/></a></g><g class="node"><a xlink:title="[6]"><path fill="#e9f4fb" stroke="#000" d="M871.69-619.38h-30c-6 0-12 6-12 12v12c0 6 6 12 12 12h30c6 0 12-6 12-12v-12c0-6-6-12-12-12"/><text text-anchor="middle" x="856.69" y="-597.68" font-family="Times,serif" font-size="14">6</text></a></g><g class="node"><a xlink:title="bdd(231)"><circle fill="#fff" stroke="#000" cx="856.69" cy="-320.7" r="24.9"/><text text-anchor="middle" x="856.69" y="-317" font-family="Times,serif" font-size="14">inc</text></a></g><g class="edge"><a xlink:title="[6]"><path fill="none" stroke="#000" d="M856.69-583.37v227.5"/><path stroke="#000" d="M860.19-355.75l-3.5 10-3.5-10h7z"/></a></g><g class="node"><a xlink:title="[7]"><path fill="#e9f4fb" stroke="#000" d="M1553.69-619.38h-30c-6 0-12 6-12 12v12c0 6 6 12 12 12h30c6 0 12-6 12-12v-12c0-6-6-12-12-12"/><text text-anchor="middle" x="1538.69" y="-597.68" font-family="Times,serif" font-size="14">7</text></a></g><g class="node"><a xlink:title="bdd(260)"><circle fill="#fff" stroke="#000" cx="1538.69" cy="-320.7" r="24.9"/><text text-anchor="middle" x="1538.69" y="-317" font-family="Times,serif" font-size="14">inc</text></a></g><g class="edge"><a xlink:title="[7]"><path fill="none" stroke="#000" d="M1538.69-583.37v227.5"/><path stroke="#000" d="M1542.19-355.75l-3.5 10-3.5-10h7z"/></a></g><g class="node"><a xlink:title="[8]"><path fill="#e9f4fb" stroke="#000" d="M1734.69-619.38h-30c-6 0-12 6-12 12v12c0 6 6 12 12 12h30c6 0 12-6 12-12v-12c0-6-6-12-12-12"/><text text-anchor="middle" x="1719.69" y="-597.68" font-family="Times,serif" font-size="14">8</text></a></g><g class="node"><a xlink:title="bdd(262)"><circle fill="#fff" stroke="#000" cx="1719.69" cy="-320.7" r="24.9"/><text text-anchor="middle" x="1719.69" y="-317" font-family="Times,serif" font-size="14">inc</text></a></g><g class="edge"><a xlink:title="[8]"><path fill="none" stroke="#000" d="M1719.69-583.37v227.5"/><path stroke="#000" d="M1723.19-355.75l-3.5 10-3.5-10h7z"/></a></g><g class="node"><a xlink:title="[9]"><path fill="#e9f4fb" stroke="#000" d="M1102.69-619.38h-30c-6 0-12 6-12 12v12c0 6 6 12 12 12h30c6 0 12-6 12-12v-12c0-6-6-12-12-12"/><text text-anchor="middle" x="1087.69" y="-597.68" font-family="Times,serif" font-size="14">9</text></a></g><g class="node"><a xlink:title="bdd(266)"><circle fill="#fff" stroke="#000" cx="1087.69" cy="-320.7" r="24.9"/><text text-anchor="middle" x="1087.69" y="-317" font-family="Times,serif" font-size="14">inc</text></a></g><g class="edge"><a xlink:title="[9]"><path fill="none" stroke="#000" d="M1087.69-583.37v227.5"/><path stroke="#000" d="M1091.19-355.75l-3.5 10-3.5-10h7z"/></a></g><g class="node"><a xlink:title="bdd(232)"><circle fill="#fff" stroke="#000" cx="690.69" cy="-413.89" r="32.49"/><text text-anchor="middle" x="690.69" y="-410.19" font-family="Times,serif" font-size="14">init1</text></a></g><g class="edge"><a xlink:title="init0=0"><path fill="none" stroke="#000" stroke-dasharray="1,5" d="M733.41-486.57c-6.58 11.03-14.26 23.92-21.29 35.71"/><path stroke="#000" d="M715.04-448.91l-8.13 6.79 2.11-10.38 6.02 3.59z"/></a></g><g class="node"><a xlink:title="bdd(248)"><circle fill="#fff" stroke="#000" cx="773.69" cy="-413.89" r="32.49"/><text text-anchor="middle" x="773.69" y="-410.19" font-family="Times,serif" font-size="14">init1</text></a></g><g class="edge"><a xlink:title="init0=1"><path fill="none" stroke="#000" d="M757.15-483.11c2.12 8.76 4.46 18.42 6.7 27.66"/><path stroke="#000" d="M767.27-456.2l-1.04 10.55-5.76-8.9 6.8-1.65z"/></a></g><g class="edge"><a xlink:title="init1=0"><path fill="none" stroke="#000" stroke-dasharray="1,5" d="M658.89-405.89c-76.38 16.83-269.65 59.4-348.22 76.71"/><path stroke="#000" d="M311.33-325.74l-10.52-1.27 9.01-5.57 1.51 6.84z"/></a></g><g class="edge"><a xlink:title="init1=1"><path fill="none" stroke="#000" d="M715.9-392.75c5.4 3.96 11.18 7.95 16.79 11.35 30.05 18.27 66.54 35.27 92.12 46.42"/><path stroke="#000" d="M826.25-338.18l7.8 7.17-10.57-.74 2.77-6.43z"/></a></g><g class="node"><a xlink:title="bdd(239)"><circle fill="#fff" stroke="#000" cx="705.69" cy="-320.7" r="24.9"/><text text-anchor="middle" x="705.69" y="-317" font-family="Times,serif" font-size="14">inc</text></a></g><g class="edge"><a xlink:title="init1=0"><path fill="none" stroke="#000" stroke-dasharray="1,5" d="M754.38-387c-8.78 11.78-19.19 25.73-28.12 37.71"/><path stroke="#000" d="M728.85-346.9l-8.79 5.92 3.17-10.11 5.62 4.19z"/></a></g><g class="edge"><a xlink:title="init1=1"><path fill="none" stroke="#000" d="M805.46-406.98c87.82 16.34 333.33 62.04 424.01 78.91"/><path stroke="#000" d="M1230.3-331.47l9.19 5.27-10.47 1.61 1.28-6.88z"/></a></g><g class="node"><a xlink:title="bdd(252)"><path fill="#fff" stroke="#000" d="M1094.69-260l-39.55 18 39.55 18 39.54-18-39.54-18z"/><text text-anchor="middle" x="1094.69" y="-238.3" font-family="Times,serif" font-size="14">ob0</text></a></g><g class="edge"><a xlink:title="inc=1"><path fill="none" stroke="#000" d="M582.79-313.83c22.78 5.35 57.98 13.12 88.9 17.83 165.52 25.22 211.53-.22 375 36 6.08 1.35 12.45 3.24 18.49 5.28"/><path stroke="#000" d="M1066.69-257.9l8.23 6.67-10.59-.08 2.36-6.59z"/></a></g><g class="node"><a xlink:title="bdd(250)"><path fill="#fff" stroke="#000" d="M422.69-260l-39.55 18 39.55 18 39.54-18-39.54-18z"/><text text-anchor="middle" x="422.69" y="-238.3" font-family="Times,serif" font-size="14">ob0</text></a></g><g class="edge"><a xlink:title="inc=0"><path fill="none" stroke="#000" stroke-dasharray="1,5" d="M537.44-307.71c-24.09 13.58-63.34 35.72-89.11 50.25"/><path stroke="#000" d="M449.93-254.35l-10.43 1.87 6.99-7.96 3.44 6.09z"/></a></g><g class="node"><a xlink:title="bdd(222)"><path fill="#fff" stroke="#000" d="M145.69-260l-39.55 18 39.55 18 39.54-18-39.54-18z"/><text text-anchor="middle" x="145.69" y="-238.3" font-family="Times,serif" font-size="14">ob0</text></a></g><g class="edge"><a xlink:title="inc=1"><path fill="none" stroke="#000" d="M255.64-307.37c-23.09 13.51-60.13 35.2-84.75 49.61"/><path stroke="#000" d="M172.52-254.65l-10.4 2.03 6.86-8.07 3.54 6.04z"/></a></g><g class="node"><a xlink:title="bdd(218)"><path fill="#fff" stroke="#000" d="M276.69-260l-39.55 18 39.55 18 39.54-18-39.54-18z"/><text text-anchor="middle" x="276.69" y="-238.3" font-family="Times,serif" font-size="14">ob0</text></a></g><g class="edge"><a xlink:title="inc=0"><path fill="none" stroke="#000" stroke-dasharray="1,5" d="M276.69-295.85v25.75"/><path stroke="#000" d="M280.19-270.02l-3.5 10-3.5-10h7z"/></a></g><g class="node"><a xlink:title="bdd(265)"><path fill="#fff" stroke="#000" d="M997.69-260l-39.55 18 39.55 18 39.54-18-39.54-18z"/><text text-anchor="middle" x="997.69" y="-238.3" font-family="Times,serif" font-size="14">ob0</text></a></g><g class="edge"><a xlink:title="inc=1"><path fill="none" stroke="#000" d="M1069.04-303.81c-14.69 12.52-35.15 29.96-50.4 42.95"/><path stroke="#000" d="M1020.66-257.98l-9.88 3.82 5.34-9.15 4.54 5.33z"/></a></g><g class="node"><a xlink:title="bdd(259)"><path fill="#fff" stroke="#000" d="M1374.69-260l-39.55 18 39.55 18 39.54-18-39.54-18z"/><text text-anchor="middle" x="1374.69" y="-238.3" font-family="Times,serif" font-size="14">ob0</text></a></g><g class="edge"><a xlink:title="inc=0"><path fill="none" stroke="#000" stroke-dasharray="1,5" d="M1111.35-313.49c41.02 10.78 127.98 33.7 201.34 53.49 9.41 2.54 19.63 5.33 28.99 7.9"/><path stroke="#000" d="M1342.72-255.45l8.72 6.03-10.57.72 1.85-6.75z"/></a></g><g class="node"><a xlink:title="bdd(238)"><path fill="#fff" stroke="#000" d="M578.69-260l-39.55 18 39.55 18 39.54-18-39.54-18z"/><text text-anchor="middle" x="578.69" y="-238.3" font-family="Times,serif" font-size="14">ob0</text></a></g><g class="edge"><a xlink:title="inc=1"><path fill="none" stroke="#000" d="M685-307.2c-22.22 13.41-57.51 34.73-81.28 49.08"/><path stroke="#000" d="M605.29-254.98l-10.37 2.17 6.76-8.16 3.61 5.99z"/></a></g><g class="node"><a xlink:title="bdd(235)"><path fill="#fff" stroke="#000" d="M705.69-260l-39.55 18 39.55 18 39.54-18-39.54-18z"/><text text-anchor="middle" x="705.69" y="-238.3" font-family="Times,serif" font-size="14">ob0</text></a></g><g class="edge"><a xlink:title="inc=0"><path fill="none" stroke="#000" stroke-dasharray="1,5" d="M705.69-295.85v25.75"/><path stroke="#000" d="M709.19-270.02l-3.5 10-3.5-10h7z"/></a></g><g class="edge"><a xlink:title="inc=1"><path fill="none" stroke="#000" d="M480.14-306.51c20.68 13.32 52.61 33.91 74.49 48.01"/><path stroke="#000" d="M556.54-261.44l6.51 8.36-10.31-2.48 3.8-5.88z"/></a></g><g class="edge"><a xlink:title="inc=0"><path fill="none" stroke="#000" stroke-dasharray="1,5" d="M449.18-297.92c-4.79 9.93-10.47 21.7-15.34 31.79"/><path stroke="#000" d="M436.97-264.56l-7.49 7.48 1.19-10.53 6.3 3.05z"/></a></g><g class="node"><a xlink:title="bdd(227)"><path fill="#fff" stroke="#000" d="M856.69-260l-39.55 18 39.55 18 39.54-18-39.54-18z"/><text text-anchor="middle" x="856.69" y="-238.3" font-family="Times,serif" font-size="14">ob0</text></a></g><g class="edge"><a xlink:title="inc=0"><path fill="none" stroke="#000" stroke-dasharray="1,5" d="M856.69-295.85v25.75"/><path stroke="#000" d="M860.19-270.02l-3.5 10-3.5-10h7z"/></a></g><g class="node"><a xlink:title="bdd(230)"><path fill="#fff" stroke="#000" d="M1497.69-260l-39.55 18 39.55 18 39.54-18-39.54-18z"/><text text-anchor="middle" x="1497.69" y="-238.3" font-family="Times,serif" font-size="14">ob0</text></a></g><g class="edge"><a xlink:title="inc=1"><path fill="none" stroke="#000" d="M881.23-316.56c37.25 4.71 110.3 13.8 172.46 20.56 164.25 17.87 206.92 9.45 370 36 13.21 2.15 27.59 5.27 40.12 8.25"/><path stroke="#000" d="M1464.96-255.07l8.88 5.77-10.54 1.03 1.66-6.8z"/></a></g><g class="node"><a xlink:title="bdd(242)"><path fill="#fff" stroke="#000" d="M1263.69-260l-39.55 18 39.55 18 39.54-18-39.54-18z"/><text text-anchor="middle" x="1263.69" y="-238.3" font-family="Times,serif" font-size="14">ob0</text></a></g><g class="edge"><a xlink:title="inc=0"><path fill="none" stroke="#000" stroke-dasharray="1,5" d="M1263.69-295.85v25.75"/><path stroke="#000" d="M1267.19-270.02l-3.5 10-3.5-10h7z"/></a></g><g class="node"><a xlink:title="bdd(246)"><path fill="#fff" stroke="#000" d="M1711.69-260l-39.55 18 39.55 18 39.54-18-39.54-18z"/><text text-anchor="middle" x="1711.69" y="-238.3" font-family="Times,serif" font-size="14">ob0</text></a></g><g class="edge"><a xlink:title="inc=1"><path fill="none" stroke="#000" d="M1288.3-317.25c62.25 6.47 230.82 25.73 368.39 57.25 7.85 1.8 16.22 4.15 23.99 6.53"/><path stroke="#000" d="M1681.99-256.72l8.48 6.35-10.59.32 2.11-6.67z"/></a></g><g class="node"><a xlink:title="bdd(255)"><path fill="#fff" stroke="#000" d="M1831.69-260l-39.55 18 39.55 18 39.54-18-39.54-18z"/><text text-anchor="middle" x="1831.69" y="-238.3" font-family="Times,serif" font-size="14">ob0</text></a></g><g class="edge"><a xlink:title="inc=0"><path fill="none" stroke="#000" stroke-dasharray="1,5" d="M1739.71-305.99c19.18 13.14 48.13 32.97 68.42 46.86"/><path stroke="#000" d="M1810.23-261.94l6.27 8.54-10.23-2.76 3.96-5.78z"/></a></g><g class="node"><a xlink:title="bdd(261)"><path fill="#fff" stroke="#000" d="M1607.69-260l-39.55 18 39.55 18 39.54-18-39.54-18z"/><text text-anchor="middle" x="1607.69" y="-238.3" font-family="Times,serif" font-size="14">ob0</text></a></g><g class="edge"><a xlink:title="inc=1"><path fill="none" stroke="#000" d="M1699.66-305.99c-19.18 13.14-48.13 32.97-68.42 46.86"/><path stroke="#000" d="M1633.1-256.16l-10.23 2.76 6.27-8.54 3.96 5.78z"/></a></g><g class="edge"><a xlink:title="inc=0"><path fill="none" stroke="#000" stroke-dasharray="1,5" d="M1657.39-308.86c8.71 4.2 18.9 8.94 28.3 12.86 38.73 16.17 84.33 32.27 114.14 42.41"/><path stroke="#000" d="M1801.32-256.78l8.35 6.51-10.59.12 2.24-6.63z"/></a></g><g class="edge"><a xlink:title="inc=1"><path fill="none" stroke="#000" d="M1614.43-307.88c-24.38 13.55-64.35 35.76-90.6 50.35"/><path stroke="#000" d="M1525.27-254.33l-10.44 1.8 7.04-7.91 3.4 6.11z"/></a></g><g class="edge"><a xlink:title="inc=0"><path fill="none" stroke="#000" stroke-dasharray="1,5" d="M1516.57-309.35c-29.48 13.78-81.65 38.18-113.85 53.24"/><path stroke="#000" d="M1403.95-252.82l-10.54 1.06 7.58-7.41 2.96 6.35z"/></a></g><g class="edge"><a xlink:title="inc=1"><path fill="none" stroke="#000" d="M1560.95-309.83c31.23 13.85 88.05 39.04 122.3 54.23"/><path stroke="#000" d="M1684.97-258.67l7.72 7.25-10.56-.85 2.84-6.4z"/></a></g><g class="node"><a xlink:title="bdd(251)"><path fill="#fff" stroke="#000" d="M1170.69-188l-39.55 18 39.55 18 39.54-18-39.54-18z"/><text text-anchor="middle" x="1170.69" y="-166.3" font-family="Times,serif" font-size="14">ob1</text></a></g><g class="edge"><a xlink:title="ob0=1"><path fill="none" stroke="#000" d="M1107.24-229.44c11.77 10.84 29.57 27.24 43.32 39.91"/><path stroke="#000" d="M1153.13-191.93l4.99 9.35-9.73-4.2 4.74-5.15z"/></a></g><g class="node"><a xlink:title="bdd(0)"><path fill="#ffe6cc" stroke="#000" d="M1063.69-40h-36v36h36v-36z"/><text text-anchor="middle" x="1045.69" y="-18.3" font-family="Times,serif" font-size="14">0</text></a></g><g class="edge"><a xlink:title="ob0=0"><path fill="none" stroke="#d3d3d3" stroke-dasharray="1,5" d="M1091.16-225.32c-8.28 36.86-29.08 129.39-39.43 175.43"/><path fill="#d3d3d3" stroke="#d3d3d3" d="M1055.12-49.01l-5.61 8.99-1.22-10.53 6.83 1.54z"/></a></g><g class="node"><a xlink:title="bdd(264)"><path fill="#fff" stroke="#000" d="M958.69-188l-39.55 18 39.55 18 39.54-18-39.54-18z"/><text text-anchor="middle" x="958.69" y="-166.3" font-family="Times,serif" font-size="14">ob1</text></a></g><g class="edge"><a xlink:title="ob0=1"><path fill="none" stroke="#000" d="M989.98-227.17c-5.29 9.49-12.43 22.31-18.56 33.31"/><path stroke="#000" d="M974.3-191.83l-7.93 7.03 1.81-10.44 6.12 3.41z"/></a></g><g class="edge"><a xlink:title="ob0=0"><path fill="none" stroke="#d3d3d3" stroke-dasharray="1,5" d="M1001.14-225.32c8.11 36.86 28.49 129.39 38.63 175.43"/><path fill="#d3d3d3" stroke="#d3d3d3" d="M1043.2-50.54l-1.26 10.52-5.57-9.02 6.83-1.5z"/></a></g><g class="node"><a xlink:title="bdd(241)"><path fill="#fff" stroke="#000" d="M1306.69-188l-39.55 18 39.55 18 39.54-18-39.54-18z"/><text text-anchor="middle" x="1306.69" y="-166.3" font-family="Times,serif" font-size="14">ob1</text></a></g><g class="edge"><a xlink:title="ob0=1"><path fill="none" stroke="#000" d="M1271.98-227.5c5.94 9.68 14.1 22.95 21 34.2"/><path stroke="#000" d="M1296.17-194.81l2.25 10.35-8.22-6.68 5.97-3.67z"/></a></g><g class="edge"><a xlink:title="ob0=0"><path fill="none" stroke="#d3d3d3" stroke-dasharray="1,5" d="M1234.8-237.09c-31.51 5.67-81.63 19-113.11 49.09-37.72 36.04-23.61 60.88-46 108-4.86 10.23-10.57 21.28-15.7 30.91"/><path fill="#d3d3d3" stroke="#d3d3d3" d="M1062.93-47.17l-7.82 7.14 1.66-10.46 6.16 3.32z"/></a></g><g class="node"><a xlink:title="bdd(254)"><path fill="#fff" stroke="#000" d="M1923.69-188l-39.55 18 39.55 18 39.54-18-39.54-18z"/><text text-anchor="middle" x="1923.69" y="-166.3" font-family="Times,serif" font-size="14">ob1</text></a></g><g class="edge"><a xlink:title="ob0=0"><path fill="none" stroke="#000" stroke-dasharray="1,5" d="M1846.06-230.06c14.72 11.2 37.81 28.76 54.98 41.83"/><path stroke="#000" d="M1903.57-190.7l5.84 8.84-10.08-3.27 4.24-5.57z"/></a></g><g class="edge"><a xlink:title="ob0=1"><path fill="none" stroke="#d3d3d3" d="M1835.85-225.73c8 33.12 21.03 111.32-23.16 145.73-14.89 11.59-601.91 47.18-738.72 55.33"/><path fill="#d3d3d3" stroke="#d3d3d3" d="M1074.06-21.17l-10.19-2.9 9.77-4.09.42 6.99z"/></a></g><g class="node"><a xlink:title="bdd(221)"><path fill="#fff" stroke="#000" d="M145.69-188l-39.55 18 39.55 18 39.54-18-39.54-18z"/><text text-anchor="middle" x="145.69" y="-166.3" font-family="Times,serif" font-size="14">ob1</text></a></g><g class="edge"><a xlink:title="ob0=0"><path fill="none" stroke="#000" stroke-dasharray="1,5" d="M145.69-223.7v25.59"/><path stroke="#000" d="M149.19-198.1l-3.5 10-3.5-10h7z"/></a></g><g class="edge"><a xlink:title="ob0=1"><path fill="none" stroke="#d3d3d3" d="M131.71-230.02C111.69-212.91 79.1-179.07 96.69-152c21.46 33.03 49.01 13 81 36 17.62 12.67 13.42 26.63 33 36 112.88 54.03 437.16 27.2 562 36 89.27 6.29 194.88 14.69 244.52 18.69"/><path fill="#d3d3d3" stroke="#d3d3d3" d="M1017.8-28.78l9.68 4.3-10.25 2.68.57-6.98z"/></a></g><g class="node"><a xlink:title="bdd(226)"><path fill="#fff" stroke="#000" d="M822.69-188l-39.55 18 39.55 18 39.54-18-39.54-18z"/><text text-anchor="middle" x="822.69" y="-166.3" font-family="Times,serif" font-size="14">ob1</text></a></g><g class="edge"><a xlink:title="ob0=0"><path fill="none" stroke="#000" stroke-dasharray="1,5" d="M849.81-226.83c-4.52 9.29-10.54 21.68-15.75 32.42"/><path stroke="#000" d="M837.07-192.61l-7.51 7.47 1.22-10.53 6.29 3.06z"/></a></g><g class="edge"><a xlink:title="ob0=1"><path fill="none" stroke="#d3d3d3" d="M863.5-226.98c9.18 18.21 26.64 50.54 46.19 74.98 33.66 42.1 80.7 83.73 109.71 107.87"/><path fill="#d3d3d3" stroke="#d3d3d3" d="M1021.94-46.57l5.5 9.06-9.95-3.66 4.45-5.4z"/></a></g><g class="node"><a xlink:title="bdd(258)"><path fill="#fff" stroke="#000" d="M1442.69-188l-39.55 18 39.55 18 39.54-18-39.54-18z"/><text text-anchor="middle" x="1442.69" y="-166.3" font-family="Times,serif" font-size="14">ob1</text></a></g><g class="edge"><a xlink:title="ob0=1"><path fill="none" stroke="#000" d="M1386.22-229.13c10.29 10.6 25.56 26.31 37.62 38.73"/><path stroke="#000" d="M1426.41-192.78l4.46 9.61-9.48-4.73 5.02-4.88z"/></a></g><g class="edge"><a xlink:title="ob0=0"><path fill="none" stroke="#d3d3d3" stroke-dasharray="1,5" d="M1352.86-233.61c-24.38 8.8-64.45 24.96-95.17 45.61-19.31 12.98-21.06 20.06-38 36-34.12 32.11-39.47 43.96-77 72-22.29 16.65-49.81 32.42-69.84 43.13"/><path fill="#d3d3d3" stroke="#d3d3d3" d="M1074.43-33.74l-10.48 1.56 7.22-7.76 3.26 6.2z"/></a></g><g class="node"><a xlink:title="bdd(217)"><path fill="#fff" stroke="#000" d="M242.69-188l-39.55 18 39.55 18 39.54-18-39.54-18z"/><text text-anchor="middle" x="242.69" y="-166.3" font-family="Times,serif" font-size="14">ob1</text></a></g><g class="edge"><a xlink:title="ob0=0"><path fill="none" stroke="#000" stroke-dasharray="1,5" d="M269.81-226.83c-4.52 9.29-10.54 21.68-15.75 32.42"/><path stroke="#000" d="M257.07-192.61l-7.51 7.47 1.22-10.53 6.29 3.06z"/></a></g><g class="edge"><a xlink:title="ob0=1"><path fill="none" stroke="#d3d3d3" d="M281.42-226c11.83 36.45 43.56 128 69.27 146 3.48 2.44 536.29 44.51 666.53 54.76"/><path fill="#d3d3d3" stroke="#d3d3d3" d="M1017.86-28.7l9.69 4.28-10.24 2.7.55-6.98z"/></a></g><g class="node"><a xlink:title="bdd(237)"><path fill="#fff" stroke="#000" d="M480.69-188l-39.55 18 39.55 18 39.54-18-39.54-18z"/><text text-anchor="middle" x="480.69" y="-166.3" font-family="Times,serif" font-size="14">ob1</text></a></g><g class="edge"><a xlink:title="ob0=1"><path fill="none" stroke="#000" d="M563.8-230.37c-15.99 11.43-41.61 29.73-60.18 42.99"/><path stroke="#000" d="M505.56-184.47l-10.17 2.97 6.1-8.66 4.07 5.69z"/></a></g><g class="edge"><a xlink:title="ob0=0"><path fill="none" stroke="#d3d3d3" stroke-dasharray="1,5" d="M584.43-226.23c8.53 19.97 26.49 55.25 53.26 74.23 53.1 37.66 86.1 2.61 142 36 18.63 11.13 14.32 24.95 33 36 66.35 39.27 158.61 51.55 204.59 55.34"/><path fill="#d3d3d3" stroke="#d3d3d3" d="M1017.69-28.14l9.71 4.24-10.23 2.74.52-6.98z"/></a></g><g class="edge"><a xlink:title="ob0=0"><path fill="none" stroke="#000" stroke-dasharray="1,5" d="M1588.11-232.7c-28.9 12.27-83.17 35.29-116.62 49.48"/><path stroke="#000" d="M1472.81-179.98l-10.57.69 7.83-7.13 2.74 6.44z"/></a></g><g class="edge"><a xlink:title="ob0=1"><path fill="none" stroke="#d3d3d3" d="M1609.2-224.64c.88 20.06-.98 53.74-20.51 72.64-65.23 63.1-118.78-2.42-201 36-22.59 10.55-20.48 25.32-43 36-92.45 43.82-216.07 53.96-270.84 56.3"/><path fill="#d3d3d3" stroke="#d3d3d3" d="M1073.96-20.2l-10.12-3.13 9.86-3.86.26 6.99z"/></a></g><g class="edge"><a xlink:title="ob0=1"><path fill="none" stroke="#000" d="M396.34-235.91c-42.86 8.5-130.18 26.76-202.65 47.91-5.88 1.71-12.08 3.74-18.01 5.79"/><path stroke="#000" d="M176.67-178.85l-10.6.06 8.26-6.65 2.34 6.59z"/></a></g><g class="edge"><a xlink:title="ob0=0"><path fill="none" stroke="#d3d3d3" stroke-dasharray="1,5" d="M411.37-228.83C385.47-199.51 327.1-124.14 367.69-80c2.8 3.05 521.91 44.57 649.78 54.76"/><path fill="#d3d3d3" stroke="#d3d3d3" d="M1017.94-28.72l9.69 4.29-10.24 2.69.55-6.98z"/></a></g><g class="node"><a xlink:title="bdd(234)"><path fill="#fff" stroke="#000" d="M686.69-188l-39.55 18 39.55 18 39.54-18-39.54-18z"/><text text-anchor="middle" x="686.69" y="-166.3" font-family="Times,serif" font-size="14">ob1</text></a></g><g class="edge"><a xlink:title="ob0=1"><path fill="none" stroke="#000" d="M701.56-225.81c-2.36 8.71-5.39 19.87-8.1 29.84"/><path stroke="#000" d="M696.8-194.89l-6 8.73-.76-10.57 6.76 1.84z"/></a></g><g class="edge"><a xlink:title="ob0=0"><path fill="none" stroke="#d3d3d3" stroke-dasharray="1,5" d="M713.27-227.29c11.11 19.03 33.46 53.58 60.42 75.29 29.42 23.69 45.77 14.74 77 36 19.22 13.09 18.2 23.77 38 36 41.62 25.71 96.59 42.29 129.22 50.61"/><path fill="#d3d3d3" stroke="#d3d3d3" d="M1018.8-32.77l8.87 5.79-10.55 1 1.68-6.79z"/></a></g><g class="node"><a xlink:title="bdd(245)"><path fill="#fff" stroke="#000" d="M1787.69-188l-39.55 18 39.55 18 39.54-18-39.54-18z"/><text text-anchor="middle" x="1787.69" y="-166.3" font-family="Times,serif" font-size="14">ob1</text></a></g><g class="edge"><a xlink:title="ob0=1"><path fill="none" stroke="#000" d="M1724.24-229.44c11.77 10.84 29.57 27.24 43.32 39.91"/><path stroke="#000" d="M1770.13-191.93l4.99 9.35-9.73-4.2 4.74-5.15z"/></a></g><g class="edge"><a xlink:title="ob0=0"><path fill="none" stroke="#d3d3d3" stroke-dasharray="1,5" d="M1715.13-225.45c4.3 18.1 12.46 48.7 23.56 73.45 7.67 17.11 16.92 17.95 22 36 4.33 15.4 10.85 24.25 0 36-11.89 12.87-556.02 47.2-686.91 55.28"/><path fill="#d3d3d3" stroke="#d3d3d3" d="M1073.94-21.22l-10.2-2.88 9.77-4.11.43 6.99z"/></a></g><g class="node"><a xlink:title="bdd(229)"><path fill="#fff" stroke="#000" d="M1539.69-188l-39.55 18 39.55 18 39.54-18-39.54-18z"/><text text-anchor="middle" x="1539.69" y="-166.3" font-family="Times,serif" font-size="14">ob1</text></a></g><g class="edge"><a xlink:title="ob0=0"><path fill="none" stroke="#000" stroke-dasharray="1,5" d="M1505.78-227.5c5.81 9.68 13.78 22.95 20.52 34.2"/><path stroke="#000" d="M1529.47-194.83l2.14 10.37-8.14-6.77 6-3.6z"/></a></g><g class="edge"><a xlink:title="ob0=1"><path fill="none" stroke="#d3d3d3" d="M1477.56-232.81c-21.68 9.28-56.73 25.64-83.87 44.81-19.01 13.42-18.49 23.34-38 36-35.11 22.77-51.75 13.46-87 36-19.88 12.71-18.57 24.22-39 36-50.77 29.26-118.23 45.17-155.76 52.29"/><path fill="#d3d3d3" stroke="#d3d3d3" d="M1074.2-24.2l-10.46-1.65 9.21-5.23 1.25 6.88z"/></a></g><g class="node"><a xlink:title="bdd(94)"><path fill="#fff" stroke="#000" d="M1713.69-116l-37.88 18 37.88 18 37.87-18-37.87-18z"/><text text-anchor="middle" x="1713.69" y="-94.3" font-family="Times,serif" font-size="14">oc1</text></a></g><g class="edge"><a xlink:title="ob1=0"><path fill="none" stroke="#000" stroke-dasharray="1,5" d="M1196.07-163.31c17.29 3.7 40.74 8.36 61.62 11.31 181.12 25.58 231.51-4.06 410 36 5.71 1.28 11.67 3.1 17.33 5.08"/><path stroke="#000" d="M1686.64-114.06l8.14 6.78-10.59-.22 2.45-6.56z"/></a></g><g class="edge"><a xlink:title="ob1=1"><path fill="none" stroke="#d3d3d3" d="M1163.99-154.73c-9.08 18.47-26.57 51.08-47.3 74.73-13.04 14.86-30.28 28.81-44.51 39.18"/><path fill="#d3d3d3" stroke="#d3d3d3" d="M1073.96-37.78l-10.18 2.94 6.12-8.65 4.06 5.71z"/></a></g><g class="node"><a xlink:title="bdd(220)"><path fill="#fff" stroke="#000" d="M37.69-116L-.19-98l37.88 18 37.87-18-37.87-18z"/><text text-anchor="middle" x="37.69" y="-94.3" font-family="Times,serif" font-size="14">oc1</text></a></g><g class="edge"><a xlink:title="ob1=0"><path fill="none" stroke="#000" stroke-dasharray="1,5" d="M130.21-158.97c-17.88 11.59-47.53 30.81-68.44 44.36"/><path stroke="#000" d="M63.43-111.51l-10.3 2.5 6.49-8.38 3.81 5.88z"/></a></g><g class="edge"><a xlink:title="ob1=1"><path fill="none" stroke="#d3d3d3" d="M159.34-157.7c27.89 22.95 89.73 73.27 101.35 77.7 106.56 40.65 398.24 27.63 512 36 89.25 6.57 194.87 14.83 244.52 18.75"/><path fill="#d3d3d3" stroke="#d3d3d3" d="M1017.78-28.72l9.7 4.28-10.25 2.7.55-6.98z"/></a></g><g class="node"><a xlink:title="bdd(244)"><path fill="#fff" stroke="#000" d="M1959.69-116l-37.88 18 37.88 18 37.87-18-37.87-18z"/><text text-anchor="middle" x="1959.69" y="-94.3" font-family="Times,serif" font-size="14">oc1</text></a></g><g class="edge"><a xlink:title="ob1=1"><path fill="none" stroke="#000" d="M1807.42-160.97c30.19 12.29 88.05 35.84 123.1 50.1"/><path stroke="#000" d="M1932.24-113.95l7.94 7.01-10.58-.52 2.64-6.49z"/></a></g><g class="edge"><a xlink:title="ob1=0"><path fill="none" stroke="#d3d3d3" stroke-dasharray="1,5" d="M1794.24-154.88c7.96 19.53 18.18 54.66-.55 74.88-12.49 13.47-584.15 47.48-719.5 55.36"/><path fill="#d3d3d3" stroke="#d3d3d3" d="M1074.02-21.13l-10.18-2.91 9.78-4.08.4 6.99z"/></a></g><g class="node"><a xlink:title="bdd(228)"><path fill="#fff" stroke="#000" d="M1620.69-116l-37.88 18 37.88 18 37.87-18-37.87-18z"/><text text-anchor="middle" x="1620.69" y="-94.3" font-family="Times,serif" font-size="14">oc1</text></a></g><g class="edge"><a xlink:title="ob1=1"><path fill="none" stroke="#000" d="M1552.7-157.75c12.83 11.08 32.62 28.19 47.55 41.09"/><path stroke="#000" d="M1602.69-119.17l5.28 9.18-9.85-3.89 4.57-5.29z"/></a></g><g class="edge"><a xlink:title="ob1=0"><path fill="none" stroke="#d3d3d3" stroke-dasharray="1,5" d="M1518.78-161.17c-8.37 3.02-18.14 6.41-27.09 9.17-60.17 18.52-80.32 8.6-137 36-24.01 11.6-23.76 24.9-48 36-79.4 36.34-183.17 50.06-232.53 54.77"/><path fill="#d3d3d3" stroke="#d3d3d3" d="M1074.2-21.72l-10.27-2.59 9.64-4.38.63 6.97z"/></a></g><g class="node"><a xlink:title="bdd(263)"><path fill="#fff" stroke="#000" d="M546.69-116l-37.88 18 37.88 18 37.87-18-37.87-18z"/><text text-anchor="middle" x="546.69" y="-94.3" font-family="Times,serif" font-size="14">oc1</text></a></g><g class="edge"><a xlink:title="ob1=1"><path fill="none" stroke="#000" d="M932.88-163.5c-17.27 3.56-40.53 8.15-61.19 11.5-123.42 20-157.59 6.14-279 36-5.69 1.4-11.64 3.27-17.3 5.26"/><path stroke="#000" d="M576.22-107.31l-10.59.21 8.15-6.77 2.44 6.56z"/></a></g><g class="edge"><a xlink:title="ob1=0"><path fill="none" stroke="#d3d3d3" stroke-dasharray="1,5" d="M966.71-155.53c14.4 24.16 44.83 75.23 63.43 106.45"/><path fill="#d3d3d3" stroke="#d3d3d3" d="M1033.17-50.85l2.11 10.38-8.13-6.79 6.02-3.59z"/></a></g><g class="node"><a xlink:title="bdd(240)"><path fill="#fff" stroke="#000" d="M1434.69-116l-37.88 18 37.88 18 37.87-18-37.87-18z"/><text text-anchor="middle" x="1434.69" y="-94.3" font-family="Times,serif" font-size="14">oc1</text></a></g><g class="edge"><a xlink:title="ob1=1"><path fill="none" stroke="#000" d="M1323.68-159.7c21.83 11.93 59.92 32.76 85.3 46.64"/><path stroke="#000" d="M1410.93-115.98l7.09 7.87-10.45-1.73 3.36-6.14z"/></a></g><g class="edge"><a xlink:title="ob1=0"><path fill="none" stroke="#d3d3d3" stroke-dasharray="1,5" d="M1293.02-157.97c-27.87 22.45-89.58 71.86-100.33 77.97-38.97 22.12-88.21 39.26-118.65 48.74"/><path fill="#d3d3d3" stroke="#d3d3d3" d="M1074.69-27.8l-10.59-.43 8.55-6.26 2.04 6.69z"/></a></g><g class="node"><a xlink:title="bdd(225)"><path fill="#fff" stroke="#000" d="M732.69-116l-37.88 18 37.88 18 37.87-18-37.87-18z"/><text text-anchor="middle" x="732.69" y="-94.3" font-family="Times,serif" font-size="14">oc1</text></a></g><g class="edge"><a xlink:title="ob1=1"><path fill="none" stroke="#000" d="M808.62-158.06c-14.48 11.26-37.25 28.97-54.08 42.06"/><path stroke="#000" d="M756.4-113.01l-10.05 3.38 5.75-8.9 4.3 5.52z"/></a></g><g class="edge"><a xlink:title="ob1=0"><path fill="none" stroke="#d3d3d3" stroke-dasharray="1,5" d="M836.4-158.06C864.39-135.79 926.29-86.7 936.69-80c26.58 17.13 58.88 33.51 81.39 44.28"/><path fill="#d3d3d3" stroke="#d3d3d3" d="M1019.83-38.76l7.55 7.44-10.54-1.11 2.99-6.33z"/></a></g><g class="node"><a xlink:title="bdd(216)"><path fill="#fff" stroke="#000" d="M130.69-116L92.81-98l37.88 18 37.87-18-37.87-18z"/><text text-anchor="middle" x="130.69" y="-94.3" font-family="Times,serif" font-size="14">oc1</text></a></g><g class="edge"><a xlink:title="ob1=0"><path fill="none" stroke="#000" stroke-dasharray="1,5" d="M226.64-158.97c-18.74 11.71-49.92 31.2-71.64 44.77"/><path stroke="#000" d="M156.68-111.12l-10.34 2.33 6.63-8.26 3.71 5.93z"/></a></g><g class="edge"><a xlink:title="ob1=1"><path fill="none" stroke="#d3d3d3" d="M247.03-153.93c6.84 20.65 22.24 57.1 49.66 73.93 90.41 55.49 370.22 27.93 476 36 89.23 6.81 194.86 14.96 244.51 18.8"/><path fill="#d3d3d3" stroke="#d3d3d3" d="M1017.77-28.67l9.71 4.26-10.24 2.72.53-6.98z"/></a></g><g class="node"><a xlink:title="bdd(233)"><path fill="#fff" stroke="#000" d="M639.69-116l-37.88 18 37.88 18 37.87-18-37.87-18z"/><text text-anchor="middle" x="639.69" y="-94.3" font-family="Times,serif" font-size="14">oc1</text></a></g><g class="edge"><a xlink:title="ob1=0"><path fill="none" stroke="#000" stroke-dasharray="1,5" d="M677.85-155.83c-6.64 9.87-15.86 23.61-23.58 35.1"/><path stroke="#000" d="M656.97-118.46l-8.48 6.35 2.66-10.25 5.82 3.9z"/></a></g><g class="edge"><a xlink:title="ob1=1"><path fill="none" stroke="#d3d3d3" d="M708.4-161.71c25.73 9.05 69.5 25.75 104.29 45.71 23.13 13.27 24.23 23.89 48 36 52.33 26.66 119.42 43.48 156.73 51.48"/><path fill="#d3d3d3" stroke="#d3d3d3" d="M1018.48-31.88l9.08 5.47-10.5 1.38 1.42-6.85z"/></a></g><g class="node"><a xlink:title="bdd(103)"><path fill="#fff" stroke="#000" d="M1527.69-116l-37.88 18 37.88 18 37.87-18-37.87-18z"/><text text-anchor="middle" x="1527.69" y="-94.3" font-family="Times,serif" font-size="14">oc1</text></a></g><g class="edge"><a xlink:title="ob1=1"><path fill="none" stroke="#000" d="M1456.34-157.75c13.46 11.08 34.24 28.19 49.9 41.09"/><path stroke="#000" d="M1508.85-119.05l5.49 9.06-9.94-3.65 4.45-5.41z"/></a></g><g class="edge"><a xlink:title="ob1=0"><path fill="none" stroke="#d3d3d3" stroke-dasharray="1,5" d="M1420.97-161.71c-25.73 9.05-69.5 25.75-104.28 45.71-23.14 13.27-23.96 24.48-48 36-65.78 31.52-151.13 47.07-194.7 53.4"/><path fill="#d3d3d3" stroke="#d3d3d3" d="M1074.24-23.1l-10.39-2.09 9.42-4.84.97 6.93z"/></a></g><g class="node"><a xlink:title="bdd(236)"><path fill="#fff" stroke="#000" d="M414.69-116l-37.88 18 37.88 18 37.87-18-37.87-18z"/><text text-anchor="middle" x="414.69" y="-94.3" font-family="Times,serif" font-size="14">oc1</text></a></g><g class="edge"><a xlink:title="ob1=0"><path fill="none" stroke="#000" stroke-dasharray="1,5" d="M469.19-156.81c-9.94 10.54-24.48 25.97-36.05 38.24"/><path stroke="#000" d="M435.46-115.93l-9.41 4.88 4.31-9.68 5.1 4.8z"/></a></g><g class="edge"><a xlink:title="ob1=1"><path fill="none" stroke="#d3d3d3" d="M478.97-152.76c-1.14 20.27.39 54.49 20.72 72.76 19.48 17.52 408.52 47.01 517.72 54.97"/><path fill="#d3d3d3" stroke="#d3d3d3" d="M1017.92-28.5l9.72 4.21-10.23 2.77.51-6.98z"/></a></g><g class="node"><a xlink:title="bdd(92)"><path fill="#fff" stroke="#000" d="M2052.69-116l-37.88 18 37.88 18 37.87-18-37.87-18z"/><text text-anchor="middle" x="2052.69" y="-94.3" font-family="Times,serif" font-size="14">oc1</text></a></g><g class="edge"><a xlink:title="ob1=1"><path fill="none" stroke="#000" d="M1940.82-159.7c22 11.93 60.38 32.76 85.96 46.64"/><path stroke="#000" d="M2028.77-115.96l7.12 7.85-10.45-1.69 3.33-6.16z"/></a></g><g class="edge"><a xlink:title="ob1=0"><path fill="none" stroke="#d3d3d3" stroke-dasharray="1,5" d="M1919.35-153.91c-6.82 20.68-22.19 57.17-49.66 73.91-8.7 5.3-651.71 46.13-795.64 55.21"/><path fill="#d3d3d3" stroke="#d3d3d3" d="M1074.04-21.28l-10.2-2.86 9.76-4.12.44 6.98z"/></a></g><g class="edge"><a xlink:title="oc1=0"><path fill="none" stroke="#d3d3d3" stroke-dasharray="1,5" d="M1694.78-88.74c-8.18 3.24-17.96 6.67-27.09 8.74-115.68 26.2-487.85 49.24-593.69 55.4"/><path fill="#d3d3d3" stroke="#d3d3d3" d="M1073.97-21.1l-10.18-2.92 9.78-4.07.4 6.99z"/></a></g><g class="node"><a xlink:title="bdd(88)=term(17)=[8]"><path fill="#ffe5f1" stroke="#000" d="M1813.69-40h-30c-6 0-12 6-12 12v12c0 6 6 12 12 12h30c6 0 12-6 12-12v-12c0-6-6-12-12-12"/><path fill="none" stroke="#000" d="M1817.69-44h-38c-6 0-12 6-12 12v20c0 6 6 12 12 12h38c6 0 12-6 12-12v-20c0-6-6-12-12-12"/><text text-anchor="middle" x="1798.69" y="-18.3" font-family="Times,serif" font-size="14">8</text></a></g><g class="edge"><a xlink:title="oc1=1"><path fill="none" stroke="#000" d="M1726.6-85.76c10.65 9.28 26.24 22.85 40.2 35"/><path stroke="#000" d="M1769.1-53.4l5.24 9.21-9.84-3.93 4.6-5.28z"/></a></g><g class="edge"><a xlink:title="oc1=1"><path fill="none" stroke="#d3d3d3" d="M1601.76-88.81c-8.18 3.23-17.96 6.67-27.07 8.81-187.66 44.07-420.9 54.17-500.7 56.39"/><path fill="#d3d3d3" stroke="#d3d3d3" d="M1073.85-20.1l-10.09-3.24 9.91-3.76.18 7z"/></a></g><g class="node"><a xlink:title="bdd(54)=term(8)=[4]"><path fill="#ffe5f1" stroke="#000" d="M1635.69-40h-30c-6 0-12 6-12 12v12c0 6 6 12 12 12h30c6 0 12-6 12-12v-12c0-6-6-12-12-12"/><text text-anchor="middle" x="1620.69" y="-18.3" font-family="Times,serif" font-size="14">4</text></a></g><g class="edge"><a xlink:title="oc1=0"><path fill="none" stroke="#000" stroke-dasharray="1,5" d="M1620.69-79.84v29.57"/><path stroke="#000" d="M1624.19-50.07l-3.5 10-3.5-10h7z"/></a></g><g class="edge"><a xlink:title="oc1=0"><path fill="none" stroke="#d3d3d3" stroke-dasharray="1,5" d="M434.66-89.34c9.56 3.37 21.24 7.08 32.03 9.34C574.1-57.44 916.43-32.1 1017.4-24.96"/><path fill="#d3d3d3" stroke="#d3d3d3" d="M1017.72-28.45l9.73 4.19-10.22 2.79.49-6.98z"/></a></g><g class="node"><a xlink:title="bdd(61)=term(12)=[6]"><path fill="#ffe5f1" stroke="#000" d="M429.69-40h-30c-6 0-12 6-12 12v12c0 6 6 12 12 12h30c6 0 12-6 12-12v-12c0-6-6-12-12-12"/><text text-anchor="middle" x="414.69" y="-18.3" font-family="Times,serif" font-size="14">6</text></a></g><g class="edge"><a xlink:title="oc1=1"><path fill="none" stroke="#000" d="M414.69-79.84v29.57"/><path stroke="#000" d="M418.19-50.07l-3.5 10-3.5-10h7z"/></a></g><g class="edge"><a xlink:title="oc1=1"><path fill="none" stroke="#d3d3d3" d="M2033.81-88.59c-8.18 3.26-17.96 6.67-27.12 8.59-266.69 55.83-340.02 19.82-612 36-119.22 7.09-261.34 15.69-320.74 19.29"/><path fill="#d3d3d3" stroke="#d3d3d3" d="M1074.04-21.21l-10.19-2.89 9.77-4.1.42 6.99z"/></a></g><g class="edge"><a xlink:title="oc1=0"><path fill="none" stroke="#000" stroke-dasharray="1,5" d="M2032.66-89.17c-8.02 3.02-17.38 6.41-25.97 9.17-57.31 18.4-124.66 36.17-166.84 46.84"/><path stroke="#000" d="M1840.5-29.71l-10.56-.96 8.85-5.83 1.71 6.79z"/></a></g><g class="edge"><a xlink:title="oc1=1"><path fill="none" stroke="#d3d3d3" d="M56.11-88.74c8.26 3.32 18.24 6.82 27.58 8.74 300.33 61.85 382.99 16.24 689 36 89.3 5.77 194.9 14.41 244.53 18.58"/><path fill="#d3d3d3" stroke="#d3d3d3" d="M1017.82-28.88l9.67 4.32-10.26 2.65.59-6.97z"/></a></g><g class="node"><a xlink:title="bdd(219)=term(5)=[2]"><path fill="#ffe5f1" stroke="#000" d="M52.69-40h-30c-6 0-12 6-12 12v12c0 6 6 12 12 12h30c6 0 12-6 12-12v-12c0-6-6-12-12-12"/><path fill="none" stroke="#000" d="M56.69-44h-38c-6 0-12 6-12 12v20c0 6 6 12 12 12h38c6 0 12-6 12-12v-20c0-6-6-12-12-12"/><text text-anchor="middle" x="37.69" y="-18.3" font-family="Times,serif" font-size="14">2</text></a></g><g class="edge"><a xlink:title="oc1=0"><path fill="none" stroke="#000" stroke-dasharray="1,5" d="M37.69-79.84v25.79"/><path stroke="#000" d="M41.19-54.03l-3.5 10-3.5-10h7z"/></a></g><g class="edge"><a xlink:title="oc1=0"><path fill="none" stroke="#d3d3d3" stroke-dasharray="1,5" d="M1939.75-89.18c-9.56 3.4-21.25 7.09-32.06 9.18-41.85 8.09-689.1 46.76-833.56 55.32"/><path fill="#d3d3d3" stroke="#d3d3d3" d="M1074.07-21.17l-10.19-2.9 9.78-4.09.41 6.99z"/></a></g><g class="node"><a xlink:title="bdd(243)=term(2)=[1]"><path fill="#ffe5f1" stroke="#000" d="M1974.69-40h-30c-6 0-12 6-12 12v12c0 6 6 12 12 12h30c6 0 12-6 12-12v-12c0-6-6-12-12-12"/><text text-anchor="middle" x="1959.69" y="-18.3" font-family="Times,serif" font-size="14">1</text></a></g><g class="edge"><a xlink:title="oc1=1"><path fill="none" stroke="#000" d="M1959.69-79.84v29.57"/><path stroke="#000" d="M1963.19-50.07l-3.5 10-3.5-10h7z"/></a></g><g class="edge"><a xlink:title="oc1=0"><path fill="none" stroke="#d3d3d3" stroke-dasharray="1,5" d="M565.63-88.89c8.19 3.22 17.96 6.67 27.06 8.89 157.47 38.47 352.43 51.85 424.49 55.68"/><path fill="#d3d3d3" stroke="#d3d3d3" d="M1017.48-27.81l9.81 4-10.17 2.99.36-6.99z"/></a></g><g class="node"><a xlink:title="bdd(48)=term(3)=[1]"><path fill="#ffe5f1" stroke="#000" d="M533.69-40h-30c-6 0-12 6-12 12v12c0 6 6 12 12 12h30c6 0 12-6 12-12v-12c0-6-6-12-12-12"/><path fill="none" stroke="#000" d="M537.69-44h-38c-6 0-12 6-12 12v20c0 6 6 12 12 12h38c6 0 12-6 12-12v-20c0-6-6-12-12-12"/><text text-anchor="middle" x="518.69" y="-18.3" font-family="Times,serif" font-size="14">1</text></a></g><g class="edge"><a xlink:title="oc1=1"><path fill="none" stroke="#000" d="M541.15-82.38c-3.1 8.21-7.1 18.78-10.87 28.72"/><path stroke="#000" d="M533.46-52.15l-6.82 8.11.27-10.59 6.55 2.48z"/></a></g><g class="edge"><a xlink:title="oc1=1"><path fill="none" stroke="#d3d3d3" d="M753.29-89.73c9.49 3.21 20.95 6.89 31.4 9.73 83.84 22.8 184.73 42.75 232.83 51.82"/><path fill="#d3d3d3" stroke="#d3d3d3" d="M1018.31-31.6l9.19 5.28-10.48 1.61 1.29-6.89z"/></a></g><g class="node"><a xlink:title="bdd(224)=term(7)=[3]"><path fill="#ffe5f1" stroke="#000" d="M747.69-40h-30c-6 0-12 6-12 12v12c0 6 6 12 12 12h30c6 0 12-6 12-12v-12c0-6-6-12-12-12"/><path fill="none" stroke="#000" d="M751.69-44h-38c-6 0-12 6-12 12v20c0 6 6 12 12 12h38c6 0 12-6 12-12v-20c0-6-6-12-12-12"/><text text-anchor="middle" x="732.69" y="-18.3" font-family="Times,serif" font-size="14">3</text></a></g><g class="edge"><a xlink:title="oc1=0"><path fill="none" stroke="#000" stroke-dasharray="1,5" d="M732.69-79.84v25.79"/><path stroke="#000" d="M736.19-54.03l-3.5 10-3.5-10h7z"/></a></g><g class="edge"><a xlink:title="oc1=1"><path fill="none" stroke="#d3d3d3" d="M1508.74-88.91c-8.19 3.21-17.96 6.67-27.05 8.91-150.91 37.25-337.57 51.3-407.66 55.5"/><path fill="#d3d3d3" stroke="#d3d3d3" d="M1074-21l-10.19-2.91 9.78-4.08.41 6.99z"/></a></g><g class="node"><a xlink:title="bdd(99)=term(19)=[9]"><path fill="#ffe5f1" stroke="#000" d="M1542.69-40h-30c-6 0-12 6-12 12v12c0 6 6 12 12 12h30c6 0 12-6 12-12v-12c0-6-6-12-12-12"/><path fill="none" stroke="#000" d="M1546.69-44h-38c-6 0-12 6-12 12v20c0 6 6 12 12 12h38c6 0 12-6 12-12v-20c0-6-6-12-12-12"/><text text-anchor="middle" x="1527.69" y="-18.3" font-family="Times,serif" font-size="14">9</text></a></g><g class="edge"><a xlink:title="oc1=0"><path fill="none" stroke="#000" stroke-dasharray="1,5" d="M1527.69-79.84v25.79"/><path stroke="#000" d="M1531.19-54.03l-3.5 10-3.5-10h7z"/></a></g><g class="edge"><a xlink:title="oc1=1"><path fill="none" stroke="#d3d3d3" d="M1414.14-89.5c-9.48 3.25-20.94 6.91-31.45 9.5-112.85 27.83-250.3 46.44-308.64 53.65"/><path fill="#d3d3d3" stroke="#d3d3d3" d="M1074.13-22.84l-10.35-2.26 9.5-4.68.85 6.94z"/></a></g><g class="node"><a xlink:title="bdd(81)=term(15)=[7]"><path fill="#ffe5f1" stroke="#000" d="M1449.69-40h-30c-6 0-12 6-12 12v12c0 6 6 12 12 12h30c6 0 12-6 12-12v-12c0-6-6-12-12-12"/><path fill="none" stroke="#000" d="M1453.69-44h-38c-6 0-12 6-12 12v20c0 6 6 12 12 12h38c6 0 12-6 12-12v-20c0-6-6-12-12-12"/><text text-anchor="middle" x="1434.69" y="-18.3" font-family="Times,serif" font-size="14">7</text></a></g><g class="edge"><a xlink:title="oc1=0"><path fill="none" stroke="#000" stroke-dasharray="1,5" d="M1434.69-79.84v25.79"/><path stroke="#000" d="M1438.19-54.03l-3.5 10-3.5-10h7z"/></a></g><g class="edge"><a xlink:title="oc1=1"><path fill="none" stroke="#d3d3d3" d="M150.62-89.16c9.55 3.41 21.24 7.1 32.07 9.16 258.05 49.22 327.91 17.92 590 36 89.28 6.16 194.88 14.62 244.52 18.66"/><path fill="#d3d3d3" stroke="#d3d3d3" d="M1017.8-28.8l9.68 4.3-10.25 2.67.57-6.97z"/></a></g><g class="edge"><a xlink:title="oc1=0"><path fill="none" stroke="#000" stroke-dasharray="1,5" d="M151.19-89.34c9.47 3.29 20.94 6.93 31.5 9.34 117.15 26.78 150.62 10.18 268 36 8.85 1.95 18.22 4.5 27.07 7.16"/><path stroke="#000" d="M478.98-40.13l8.51 6.31-10.59.38 2.08-6.69z"/></a></g><g class="edge"><a xlink:title="oc1=1"><path fill="none" stroke="#d3d3d3" d="M659.11-88.85c8.1 3.14 17.68 6.53 26.58 8.85 121.28 31.68 270.44 48.46 331.7 54.43"/><path fill="#d3d3d3" stroke="#d3d3d3" d="M1017.82-29.04l9.63 4.43-10.29 2.54.66-6.97z"/></a></g><g class="node"><a xlink:title="bdd(58)=term(11)=[5]"><path fill="#ffe5f1" stroke="#000" d="M654.69-40h-30c-6 0-12 6-12 12v12c0 6 6 12 12 12h30c6 0 12-6 12-12v-12c0-6-6-12-12-12"/><path fill="none" stroke="#000" d="M658.69-44h-38c-6 0-12 6-12 12v20c0 6 6 12 12 12h38c6 0 12-6 12-12v-20c0-6-6-12-12-12"/><text text-anchor="middle" x="639.69" y="-18.3" font-family="Times,serif" font-size="14">5</text></a></g><g class="edge"><a xlink:title="oc1=0"><path fill="none" stroke="#000" stroke-dasharray="1,5" d="M639.69-79.84v25.79"/><path stroke="#000" d="M643.19-54.03l-3.5 10-3.5-10h7z"/></a></g></g></svg>