<svg width="182pt" height="305pt" viewBox="0 0 181.5 305" xmlns="http://www.w3.org/2000/svg" xmlns:xlink="http://www.w3.org/1999/xlink"><g class="graph" transform="translate(4 301)"><path fill="#fff" stroke="transparent" d="M-4 4v-305h181.5V4H-4z"/><g class="node"><a xlink:title="[0]"><path fill="#e9f4fb" stroke="#000" d="M110-260H77c-6 0-12 6-12 12v12c0 6 6 12 12 12h33c6 0 12-6 12-12v-12c0-6-6-12-12-12"/><text text-anchor="middle" x="93.5" y="-238.3" font-family="Times,serif" font-size="14">a M b</text></a></g><g class="edge"><a xlink:title="initial state"><path fill="none" stroke="#000" d="M93.5-295.85v25.75"/><path stroke="#000" d="M97-270.02l-3.5 10-3.5-10h7z"/></a></g><g class="node"><a xlink:title="bdd(9)"><circle fill="#fff" stroke="#000" cx="93.5" cy="-170" r="18"/><text text-anchor="middle" x="93.5" y="-166.3" font-family="Times,serif" font-size="14">a</text></a></g><g class="edge"><a xlink:title="[0]"><path fill="none" stroke="#000" d="M93.5-223.7v25.59"/><path stroke="#000" d="M97-198.1l-3.5 10-3.5-10h7z"/></a></g><g class="node"><a xlink:title="bdd(8)"><circle fill="#fff" stroke="#000" cx="66.5" cy="-98" r="18"/><text text-anchor="middle" x="66.5" y="-94.3" font-family="Times,serif" font-size="14">b</text></a></g><g class="edge"><a xlink:title="a=0"><path fill="none" stroke="#000" stroke-dasharray="1,5" d="M87.24-152.76L76.33-124.5"/><path stroke="#000" d="M79.59-123.22l-6.86 8.07.33-10.59 6.53 2.52z"/></a></g><g class="node"><a xlink:title="bdd(4)"><circle fill="#fff" stroke="#000" cx="120.5" cy="-98" r="18"/><text text-anchor="middle" x="120.5" y="-94.3" font-family="Times,serif" font-size="14">b</text></a></g><g class="edge"><a xlink:title="a=1"><path fill="none" stroke="#000" d="M99.76-152.76l10.91 28.26"/><path stroke="#000" d="M113.94-125.74l.33 10.59-6.86-8.07 6.53-2.52z"/></a></g><g class="node"><a xlink:title="bdd(0)"><path fill="#ffe6cc" stroke="#000" d="M111.5-40h-36v36h36v-36z"/><text text-anchor="middle" x="93.5" y="-18.3" font-family="Times,serif" font-size="14">0</text></a></g><g class="edge"><a xlink:title="b=0"><path fill="none" stroke="#000" stroke-dasharray="1,5" d="M72.36-80.94c3.34 9.15 7.6 20.84 11.43 31.33"/><path stroke="#000" d="M87.14-50.65l.14 10.59-6.72-8.19 6.58-2.4z"/></a></g><g class="node"><a xlink:title="bdd(6)=term(0)=[0]"><path fill="#ffe5f1" stroke="#000" d="M45-40H12C6-40 0-34 0-28v12C0-10 6-4 12-4h33c6 0 12-6 12-12v-12c0-6-6-12-12-12"/><text text-anchor="middle" x="28.5" y="-18.3" font-family="Times,serif" font-size="14">a M b</text></a></g><g class="edge"><a xlink:title="b=1"><path fill="none" stroke="#000" d="M58.63-81.67c-4.81 9.37-11.09 21.59-16.67 32.45"/><path stroke="#000" d="M44.97-47.42l-7.68 7.3 1.46-10.5 6.22 3.2z"/></a></g><g class="edge"><a xlink:title="b=0"><path fill="none" stroke="#000" stroke-dasharray="1,5" d="M114.64-80.94c-3.34 9.15-7.6 20.84-11.43 31.33"/><path stroke="#000" d="M106.44-48.25l-6.72 8.19.14-10.59 6.58 2.4z"/></a></g><g class="node"><a xlink:title="bdd(1)"><path fill="#ffe6cc" stroke="#000" d="M169.5-40h-36v36h36v-36z"/><path fill="none" stroke="#000" d="M173.5-44h-44V0h44v-44z"/><text text-anchor="middle" x="151.5" y="-18.3" font-family="Times,serif" font-size="14">1</text></a></g><g class="edge"><a xlink:title="b=1"><path fill="none" stroke="#000" d="M127.23-80.94c3.35 8.01 7.53 17.98 11.47 27.37"/><path stroke="#000" d="M142.03-54.66l.64 10.57-7.1-7.87 6.46-2.7z"/></a></g></g></svg>