<svg width="208pt" height="433pt" viewBox="0 0 207.99 433.5" xmlns="http://www.w3.org/2000/svg"><g class="graph"><path fill="#fff" stroke="transparent" d="M0 433.5V0h207.99v433.5H0z"/><g class="node" transform="translate(4 429.5)"><path fill="#ffe6cc" stroke="#000" d="M132.5-118h-65v36h65v-36z"/><text text-anchor="middle" x="100" y="-96.3" font-family="Times,serif" font-size="14">L0_out</text></g><g class="node" transform="translate(4 429.5)"><circle fill="none" stroke="#000" cx="100" cy="-172" r="18"/><text text-anchor="middle" x="100" y="-168.3" font-family="Times,serif" font-size="14">8</text></g><g class="edge" transform="translate(4 429.5)"><path fill="none" stroke="#000" d="M100-118.3v-25.59"/><path stroke="#000" d="M96.5-143.9l3.5-10 3.5 10h-7z"/></g><g class="node" transform="translate(4 429.5)"><circle fill="none" stroke="#000" cx="42" cy="-248.75" r="23"/><text text-anchor="middle" x="42" y="-245.05" font-family="Times,serif" font-size="14">10</text></g><g class="edge" transform="translate(4 429.5)"><path fill="none" stroke="#000" d="M89.36-186.71c-8-10.31-19.17-24.71-28.66-36.93"/><circle stroke="#000" cx="58.09" cy="-227.01" r="4"/></g><g class="node" transform="translate(4 429.5)"><path fill="#ffe5f1" stroke="#000" d="M100-379.5l44.39-34.5H55.6l44.4 34.5z"/><text text-anchor="middle" x="100" y="-398.8" font-family="Times,serif" font-size="14">o1</text></g><g class="edge" transform="translate(4 429.5)"><path fill="none" stroke="#000" d="M100-190.13v-178.98"/><path stroke="#000" d="M96.5-369.5l3.5-10 3.5 10h-7z"/></g><g class="node" transform="translate(4 429.5)"><path fill="#ffe6cc" stroke="#000" d="M69.5-343.5h-55v36h55v-36z"/><text text-anchor="middle" x="42" y="-321.8" font-family="Times,serif" font-size="14">L0_in</text></g><g class="edge" transform="translate(4 429.5)"><path fill="none" stroke="#000" d="M42-271.77v-27.45"/><circle stroke="#000" cx="42" cy="-303.37" r="4"/></g><g class="node" transform="translate(4 429.5)"><path fill="#e9f4fb" stroke="#000" d="M39-46L0-11.5h77.99L39-46z"/><text text-anchor="middle" x="39" y="-19.3" font-family="Times,serif" font-size="14">i1</text></g><g class="edge" transform="translate(4 429.5)"><path fill="none" stroke="#000" d="M39.29-45.86c.54-40.27 1.69-126.22 2.3-171.9"/><circle stroke="#000" cx="41.65" cy="-221.8" r="4"/></g><g class="node" transform="translate(4 429.5)"><path fill="#e9f4fb" stroke="#000" d="M161-46l-39 34.5h77.99L161-46z"/><text text-anchor="middle" x="161" y="-19.3" font-family="Times,serif" font-size="14">i2</text></g><g class="edge" transform="translate(4 429.5)"><path fill="none" stroke="#000" d="M159.57-45.04C157.6-64.69 152.94-94.44 142-118c-5.59-12.02-14.42-23.75-22.54-33.11"/><path stroke="#000" d="M116.73-148.91l-4.13-9.75 9.31 5.05-5.18 4.7z"/></g></g></svg>