<?xml-stylesheet href="spot.css" type="text/css"?><svg width="271pt" height="184" viewBox="0 0 270.5 138.26" xmlns="http://www.w3.org/2000/svg"><g class="graph"><path fill="#fff" stroke="transparent" d="M0 138.26V0h270.5v138.26H0z"/><g class="node" transform="translate(4 134.26)"><circle fill="#ffffa0" stroke="#000" cx="56" cy="-34.26" r="18"/><text text-anchor="middle" x="56" y="-31.16" font-family="Lato" font-size="12">0</text></g><g class="edge" transform="translate(4 134.26)"><path fill="none" stroke="#000" d="M1.15-34.26h29.48"/><path stroke="#000" d="M37.94-34.26l-7-3.15 3.5 3.15h-3.5 3.5l-3.5 3.15 7-3.15h0z"/></g><g class="edge" transform="translate(4 134.26)"><path fill="none" stroke="#000" d="M49.62-51.29c-1.3-9.82.83-18.97 6.38-18.97 4.17 0 6.4 5.15 6.71 11.86"/><path stroke="#000" d="M62.38-51.29l3.47-6.85-3.31 3.35.17-3.5h0l-.17 3.5-2.98-3.64 2.82 7.14h0z"/><path fill="#e9f4fb" stroke="transparent" d="M28-71.76v-17h20v17H28z"/><text x="30" y="-77.16" font-family="Lato" font-size="12">!i1</text><text x="52" y="-77.16" font-family="Lato" font-size="12">/</text><path fill="#ffe5f1" stroke="transparent" d="M60-71.76v-17h24v17H60z"/><text x="62" y="-77.16" font-family="Lato" font-size="12">!o1</text></g><g class="node" transform="translate(4 134.26)"><circle fill="#ffffa0" stroke="#000" cx="219" cy="-34.26" r="18"/><text text-anchor="middle" x="219" y="-31.16" font-family="Lato" font-size="12">1</text></g><g class="edge" transform="translate(4 134.26)"><path fill="none" stroke="#000" d="M74.23-34.26h119.25"/><path stroke="#000" d="M200.89-34.26l-7-3.15 3.5 3.15h-3.5 3.5l-3.5 3.15 7-3.15h0z"/><path fill="#e9f4fb" stroke="transparent" d="M112.5-35.76v-17h15v17h-15z"/><text x="114.5" y="-41.16" font-family="Lato" font-size="12">i1</text><text x="131.5" y="-41.16" font-family="Lato" font-size="12">/</text><path fill="#ffe5f1" stroke="transparent" d="M139.5-35.76v-17h24v17h-24z"/><text x="141.5" y="-41.16" font-family="Lato" font-size="12">!o1</text></g><g class="edge" transform="translate(4 134.26)"><path fill="none" stroke="#000" d="M205.45-22.38c-6.24 5.1-14.2 10.48-22.45 13.12-38.52 12.35-52.48 12.35-91 0-5.93-1.9-11.71-5.21-16.81-8.82"/><path stroke="#000" d="M69.55-22.38l3.66 6.75-.87-4.62 2.78 2.12h0l-2.78-2.12 4.69-.39-7.48-1.74h0z"/><path fill="#e9f4fb" stroke="transparent" d="M94.5-10.76v-17h51v17h-51z"/><text x="96.5" y="-16.16" font-family="Lato" font-size="12">!i1 &amp; !i2</text><text x="149.5" y="-16.16" font-family="Lato" font-size="12">/</text><path fill="#ffe5f1" stroke="transparent" d="M157.5-10.76v-17h24v17h-24z"/><text x="159.5" y="-16.16" font-family="Lato" font-size="12">!o1</text></g><g class="edge" transform="translate(4 134.26)"><path fill="none" stroke="#000" d="M211.97-50.92c-1.56-9.96.78-19.34 7.03-19.34 4.69 0 7.18 5.28 7.47 12.12"/><path stroke="#000" d="M226.03-50.92l3.57-6.8-3.36 3.31.22-3.5h0l-.22 3.5-2.93-3.69 2.72 7.18h0z"/><path fill="#e9f4fb" stroke="transparent" d="M178-71.76v-17h47v17h-47z"/><text x="180" y="-77.16" font-family="Lato" font-size="12">i1 &amp; !i2</text><text x="229" y="-77.16" font-family="Lato" font-size="12">/</text><path fill="#ffe5f1" stroke="transparent" d="M237-71.76v-17h24v17h-24z"/><text x="239" y="-77.16" font-family="Lato" font-size="12">!o1</text></g><g class="edge" transform="translate(4 134.26)"><path fill="none" stroke="#000" d="M208.49-49.03c-8.46-18.9-4.96-42.23 10.51-42.23 13.66 0 17.99 18.19 13 35.45"/><path stroke="#000" d="M229.51-49.03l5.37-5.49-4.16 2.21 1.2-3.29h0l-1.2 3.29-1.76-4.37.55 7.65h0z"/><path fill="#e9f4fb" stroke="transparent" d="M196-92.76v-17h15v17h-15z"/><text x="198" y="-98.16" font-family="Lato" font-size="12">i2</text><text x="215" y="-98.16" font-family="Lato" font-size="12">/</text><path fill="#ffe5f1" stroke="transparent" d="M223-92.76v-17h20v17h-20z"/><text x="225" y="-98.16" font-family="Lato" font-size="12">o1</text></g></g></svg>